<?xml version="1.0" encoding="UTF-8"?>
<svg xmlns="http://www.w3.org/2000/svg" width="1536" height="1024" viewBox="0 0 1536 1024" role="img" aria-label="Blue crown logo">
  <path fill="#0152b4" fill-rule="evenodd" d="M837 658 L835 658 L835 657 L833 657 L831 657 L831 656 L833 656 L833 655 L834 655 L834 654 L836 654 L836 653 L838 653 L838 652 L839 652 L839 651 L841 651 L841 650 L843 650 L843 649 L844 649 L844 648 L846 648 L846 647 L848 647 L848 646 L850 646 L850 645 L852 645 L852 644 L854 644 L854 643 L856 643 L856 642 L858 642 L858 641 L859 641 L859 640 L861 640 L861 639 L863 639 L863 638 L865 638 L865 637 L867 637 L867 636 L869 636 L869 635 L871 635 L871 634 L873 634 L873 633 L875 633 L875 632 L877 632 L877 631 L879 631 L879 630 L881 630 L881 631 L882 631 L882 632 L884 632 L885 632 L885 633 L887 633 L887 634 L889 634 L890 634 L890 635 L892 635 L892 636 L894 636 L895 636 L895 637 L897 637 L898 637 L898 638 L900 638 L900 639 L902 639 L902 640 L904 640 L904 641 L906 641 L907 641 L907 642 L909 642 L909 643 L911 643 L912 643 L912 644 L914 644 L914 645 L916 645 L916 646 L918 646 L918 647 L920 647 L921 647 L921 648 L923 648 L923 649 L925 649 L925 650 L927 650 L927 651 L929 651 L929 652 L931 652 L931 653 L933 653 L933 654 L935 654 L935 655 L937 655 L937 656 L939 656 L939 657 L941 657 L941 658 L943 658 L944 658 L944 659 L945 659 L945 660 L947 660 L948 660 L948 661 L950 661 L950 662 L952 662 L952 663 L954 663 L954 664 L956 664 L956 665 L958 665 L958 666 L960 666 L960 667 L962 667 L962 668 L964 668 L964 669 L966 669 L966 670 L968 670 L968 671 L970 671 L970 672 L971 672 L971 673 L973 673 L973 674 L975 674 L975 675 L977 675 L977 676 L979 676 L979 677 L981 677 L981 678 L983 678 L983 679 L984 679 L984 680 L986 680 L986 681 L988 681 L988 682 L990 682 L990 683 L991 683 L991 684 L993 684 L993 685 L995 685 L995 686 L997 686 L997 687 L998 687 L998 688 L1000 688 L1000 689 L1002 689 L1002 690 L1003 690 L1003 691 L1005 691 L1005 692 L1007 692 L1007 693 L1008 693 L1008 694 L1010 694 L1010 695 L1012 695 L1012 696 L1013 696 L1013 697 L1015 697 L1015 698 L1016 698 L1016 699 L1018 699 L1018 700 L1019 700 L1019 701 L1021 701 L1021 702 L1022 702 L1022 703 L1024 703 L1024 704 L1025 704 L1025 705 L1026 705 L1026 703 L1026 701 L1026 700 L1025 700 L1025 698 L1025 696 L1025 694 L1025 692 L1024 692 L1024 690 L1024 688 L1024 686 L1024 684 L1023 684 L1023 682 L1023 680 L1023 678 L1023 676 L1022 676 L1022 674 L1022 672 L1022 670 L1022 669 L1021 669 L1021 667 L1021 666 L1022 666 L1022 664 L1023 664 L1023 663 L1024 663 L1024 662 L1025 662 L1025 661 L1026 661 L1026 660 L1027 660 L1027 659 L1028 659 L1028 658 L1029 658 L1029 657 L1030 657 L1030 656 L1031 656 L1031 655 L1032 655 L1032 654 L1033 654 L1033 653 L1034 653 L1034 651 L1035 651 L1035 650 L1036 650 L1036 649 L1037 649 L1037 648 L1038 648 L1038 647 L1039 647 L1039 646 L1040 646 L1040 645 L1041 645 L1041 644 L1042 644 L1042 643 L1043 643 L1043 642 L1044 642 L1044 640 L1045 640 L1045 639 L1046 639 L1046 638 L1047 638 L1047 637 L1048 637 L1048 636 L1049 636 L1049 635 L1050 635 L1050 634 L1051 634 L1051 633 L1052 633 L1052 631 L1053 631 L1053 630 L1054 630 L1054 629 L1055 629 L1055 628 L1056 628 L1056 627 L1057 627 L1057 626 L1058 626 L1058 625 L1059 625 L1059 624 L1060 624 L1060 623 L1061 623 L1061 622 L1062 622 L1062 621 L1063 621 L1063 620 L1064 620 L1064 619 L1065 619 L1065 618 L1066 618 L1066 617 L1067 617 L1067 615 L1068 615 L1068 614 L1069 614 L1069 613 L1070 613 L1070 612 L1071 612 L1071 611 L1072 611 L1072 610 L1073 610 L1073 609 L1074 609 L1074 608 L1075 608 L1075 607 L1077 607 L1077 606 L1078 606 L1078 605 L1076 605 L1074 605 L1072 605 L1070 605 L1068 605 L1066 605 L1064 605 L1063 605 L1063 604 L1064 604 L1064 602 L1064 600 L1064 598 L1064 596 L1064 595 L1065 595 L1065 593 L1065 591 L1065 589 L1065 587 L1065 585 L1065 583 L1065 582 L1066 582 L1066 581 L1067 581 L1067 580 L1068 580 L1068 579 L1069 579 L1069 578 L1070 578 L1070 577 L1071 577 L1071 576 L1072 576 L1072 575 L1073 575 L1073 574 L1074 574 L1074 573 L1075 573 L1075 572 L1076 572 L1076 571 L1077 571 L1077 570 L1078 570 L1078 569 L1079 569 L1079 568 L1080 568 L1080 567 L1081 567 L1081 566 L1082 566 L1082 565 L1083 565 L1083 564 L1084 564 L1084 563 L1085 563 L1085 562 L1086 562 L1086 561 L1087 561 L1087 560 L1088 560 L1088 559 L1089 559 L1089 557 L1090 557 L1090 556 L1091 556 L1091 555 L1092 555 L1092 554 L1093 554 L1093 553 L1094 553 L1094 552 L1095 552 L1095 551 L1096 551 L1096 550 L1097 550 L1097 549 L1098 549 L1098 548 L1099 548 L1099 547 L1100 547 L1100 546 L1101 546 L1101 545 L1102 545 L1102 543 L1103 543 L1103 542 L1104 542 L1104 541 L1103 541 L1103 542 L1101 542 L1101 543 L1100 543 L1100 544 L1099 544 L1099 545 L1097 545 L1097 546 L1096 546 L1096 547 L1094 547 L1094 548 L1093 548 L1093 549 L1091 549 L1091 550 L1090 550 L1090 551 L1088 551 L1088 552 L1087 552 L1087 553 L1085 553 L1085 554 L1084 554 L1084 555 L1082 555 L1082 556 L1081 556 L1081 557 L1079 557 L1079 558 L1078 558 L1078 559 L1076 559 L1076 560 L1075 560 L1075 561 L1073 561 L1073 562 L1072 562 L1072 563 L1070 563 L1070 564 L1069 564 L1069 565 L1068 565 L1068 566 L1066 566 L1066 567 L1065 567 L1065 568 L1063 568 L1063 569 L1062 569 L1062 570 L1060 570 L1060 571 L1059 571 L1059 572 L1058 572 L1058 573 L1056 573 L1056 574 L1055 574 L1055 576 L1055 578 L1055 580 L1055 582 L1055 584 L1054 584 L1054 586 L1054 588 L1054 590 L1054 592 L1054 593 L1053 593 L1053 594 L1051 594 L1049 594 L1047 594 L1046 594 L1046 593 L1044 593 L1042 593 L1040 593 L1038 593 L1036 593 L1036 592 L1034 592 L1032 592 L1030 592 L1028 592 L1028 590 L1028 588 L1028 586 L1028 584 L1028 583 L1027 583 L1027 581 L1027 579 L1027 577 L1027 575 L1027 574 L1026 574 L1026 572 L1026 570 L1026 568 L1026 566 L1026 564 L1025 564 L1025 562 L1025 560 L1025 558 L1025 556 L1025 555 L1026 555 L1026 554 L1028 554 L1028 553 L1030 553 L1030 552 L1031 552 L1031 551 L1033 551 L1033 550 L1035 550 L1035 549 L1036 549 L1036 548 L1038 548 L1038 547 L1040 547 L1040 546 L1042 546 L1042 545 L1043 545 L1043 544 L1045 544 L1045 543 L1046 543 L1046 542 L1048 542 L1048 541 L1050 541 L1050 540 L1051 540 L1051 539 L1053 539 L1053 538 L1055 538 L1055 537 L1056 537 L1056 536 L1058 536 L1058 535 L1060 535 L1060 534 L1061 534 L1061 533 L1063 533 L1063 532 L1064 532 L1064 531 L1066 531 L1066 530 L1067 530 L1067 529 L1069 529 L1069 528 L1070 528 L1070 527 L1072 527 L1072 526 L1073 526 L1073 525 L1075 525 L1075 524 L1076 524 L1076 523 L1078 523 L1078 522 L1080 522 L1080 521 L1081 521 L1081 520 L1083 520 L1083 519 L1084 519 L1084 518 L1086 518 L1086 517 L1087 517 L1087 516 L1089 516 L1089 515 L1090 515 L1090 514 L1092 514 L1092 513 L1093 513 L1093 512 L1094 512 L1094 511 L1096 511 L1096 510 L1097 510 L1097 509 L1099 509 L1099 508 L1100 508 L1100 507 L1102 507 L1102 506 L1103 506 L1103 505 L1104 505 L1104 504 L1106 504 L1106 503 L1107 503 L1107 502 L1109 502 L1109 501 L1110 501 L1110 500 L1112 500 L1112 499 L1113 499 L1113 498 L1115 498 L1115 497 L1116 497 L1116 496 L1117 496 L1117 495 L1119 495 L1119 494 L1120 494 L1120 493 L1122 493 L1122 492 L1123 492 L1123 491 L1124 491 L1124 490 L1126 490 L1126 489 L1127 489 L1127 488 L1129 488 L1129 487 L1130 487 L1130 486 L1132 486 L1132 485 L1133 485 L1133 484 L1134 484 L1134 483 L1136 483 L1136 482 L1137 482 L1137 481 L1139 481 L1139 480 L1140 480 L1140 479 L1141 479 L1141 478 L1143 478 L1143 477 L1144 477 L1144 476 L1146 476 L1146 475 L1147 475 L1147 474 L1145 474 L1143 474 L1142 474 L1142 475 L1140 475 L1138 475 L1136 475 L1134 475 L1133 475 L1133 476 L1131 476 L1129 476 L1127 476 L1125 476 L1124 476 L1124 477 L1122 477 L1120 477 L1118 477 L1116 477 L1115 477 L1115 478 L1113 478 L1111 478 L1109 478 L1109 479 L1107 479 L1106 479 L1106 477 L1108 477 L1108 476 L1110 476 L1110 475 L1112 475 L1112 474 L1114 474 L1114 473 L1115 473 L1115 472 L1117 472 L1117 471 L1119 471 L1119 470 L1121 470 L1121 469 L1123 469 L1123 468 L1125 468 L1125 467 L1127 467 L1127 466 L1129 466 L1129 465 L1131 465 L1131 464 L1132 464 L1132 463 L1134 463 L1134 462 L1136 462 L1136 461 L1138 461 L1138 460 L1140 460 L1140 459 L1142 459 L1142 458 L1144 458 L1144 457 L1146 457 L1146 456 L1148 456 L1148 455 L1150 455 L1150 454 L1151 454 L1151 453 L1153 453 L1153 452 L1155 452 L1155 451 L1157 451 L1157 450 L1159 450 L1159 449 L1161 449 L1161 448 L1163 448 L1163 447 L1165 447 L1165 446 L1166 446 L1166 445 L1168 445 L1168 444 L1170 444 L1170 443 L1172 443 L1172 442 L1174 442 L1174 441 L1176 441 L1176 440 L1178 440 L1178 439 L1180 439 L1180 438 L1181 438 L1181 437 L1183 437 L1183 436 L1185 436 L1185 435 L1187 435 L1187 434 L1189 434 L1189 433 L1191 433 L1191 432 L1193 432 L1193 431 L1194 431 L1194 430 L1196 430 L1196 429 L1198 429 L1198 428 L1200 428 L1200 427 L1202 427 L1202 426 L1204 426 L1204 425 L1206 425 L1206 424 L1207 424 L1207 423 L1209 423 L1209 422 L1211 422 L1211 421 L1213 421 L1213 420 L1215 420 L1215 419 L1217 419 L1217 418 L1219 418 L1219 417 L1221 417 L1221 416 L1222 416 L1222 415 L1224 415 L1224 414 L1226 414 L1226 413 L1228 413 L1228 412 L1230 412 L1230 411 L1232 411 L1232 410 L1234 410 L1234 409 L1236 409 L1236 408 L1237 408 L1237 407 L1239 407 L1239 406 L1241 406 L1241 405 L1243 405 L1243 404 L1245 404 L1245 403 L1247 403 L1247 402 L1249 402 L1249 401 L1250 401 L1250 400 L1252 400 L1252 399 L1254 399 L1254 401 L1253 401 L1253 402 L1252 402 L1252 403 L1251 403 L1251 404 L1250 404 L1250 405 L1249 405 L1249 407 L1248 407 L1248 408 L1247 408 L1247 409 L1246 409 L1246 410 L1245 410 L1245 412 L1244 412 L1244 413 L1243 413 L1243 414 L1242 414 L1242 415 L1241 415 L1241 417 L1240 417 L1240 418 L1239 418 L1239 419 L1238 419 L1238 420 L1237 420 L1237 421 L1236 421 L1236 423 L1235 423 L1235 424 L1234 424 L1234 425 L1233 425 L1233 426 L1232 426 L1232 428 L1231 428 L1231 429 L1230 429 L1230 430 L1229 430 L1229 431 L1228 431 L1228 432 L1227 432 L1227 434 L1226 434 L1226 435 L1225 435 L1225 436 L1224 436 L1224 437 L1223 437 L1223 438 L1222 438 L1222 440 L1221 440 L1221 441 L1220 441 L1220 442 L1219 442 L1219 443 L1218 443 L1218 445 L1217 445 L1217 446 L1216 446 L1216 447 L1215 447 L1215 448 L1214 448 L1214 450 L1213 450 L1213 451 L1212 451 L1212 452 L1211 452 L1211 453 L1210 453 L1210 454 L1209 454 L1209 455 L1208 455 L1208 457 L1207 457 L1207 458 L1206 458 L1206 459 L1205 459 L1205 460 L1204 460 L1204 462 L1203 462 L1203 463 L1202 463 L1202 464 L1201 464 L1201 465 L1200 465 L1200 467 L1199 467 L1199 468 L1198 468 L1198 469 L1197 469 L1197 470 L1196 470 L1196 472 L1195 472 L1195 473 L1194 473 L1194 474 L1193 474 L1193 475 L1192 475 L1192 476 L1191 476 L1191 477 L1190 477 L1190 479 L1189 479 L1189 480 L1188 480 L1188 481 L1187 481 L1187 482 L1186 482 L1186 484 L1185 484 L1185 485 L1184 485 L1184 486 L1183 486 L1183 487 L1182 487 L1182 489 L1181 489 L1181 490 L1180 490 L1180 491 L1179 491 L1179 492 L1178 492 L1178 494 L1177 494 L1177 495 L1176 495 L1176 496 L1175 496 L1175 497 L1174 497 L1174 499 L1175 499 L1175 501 L1176 501 L1176 503 L1176 504 L1177 504 L1177 506 L1177 508 L1178 508 L1178 510 L1178 512 L1178 514 L1177 514 L1177 516 L1177 518 L1176 518 L1176 520 L1175 520 L1175 521 L1174 521 L1174 523 L1173 523 L1173 524 L1172 524 L1172 525 L1171 525 L1171 526 L1170 526 L1170 527 L1168 527 L1168 528 L1166 528 L1166 529 L1164 529 L1163 529 L1163 530 L1161 530 L1159 530 L1157 530 L1155 530 L1153 530 L1152 530 L1152 529 L1150 529 L1149 529 L1149 528 L1147 528 L1147 529 L1146 529 L1146 530 L1145 530 L1145 531 L1144 531 L1144 532 L1143 532 L1143 533 L1142 533 L1142 534 L1141 534 L1141 535 L1140 535 L1140 536 L1139 536 L1139 537 L1138 537 L1138 539 L1137 539 L1137 540 L1136 540 L1136 541 L1135 541 L1135 542 L1134 542 L1134 543 L1133 543 L1133 544 L1132 544 L1132 546 L1131 546 L1131 547 L1130 547 L1130 548 L1129 548 L1129 549 L1128 549 L1128 550 L1127 550 L1127 551 L1126 551 L1126 552 L1125 552 L1125 554 L1124 554 L1124 555 L1123 555 L1123 556 L1122 556 L1122 557 L1121 557 L1121 558 L1120 558 L1120 559 L1119 559 L1119 560 L1118 560 L1118 562 L1117 562 L1117 563 L1116 563 L1116 564 L1115 564 L1115 565 L1114 565 L1114 566 L1113 566 L1113 567 L1112 567 L1112 568 L1111 568 L1111 569 L1110 569 L1110 571 L1109 571 L1109 572 L1108 572 L1108 573 L1107 573 L1107 574 L1106 574 L1106 575 L1105 575 L1105 576 L1104 576 L1104 577 L1103 577 L1103 578 L1102 578 L1102 579 L1101 579 L1101 581 L1100 581 L1100 582 L1099 582 L1099 583 L1098 583 L1098 584 L1097 584 L1097 585 L1096 585 L1096 586 L1095 586 L1095 587 L1094 587 L1094 588 L1093 588 L1093 589 L1095 589 L1097 589 L1099 589 L1101 589 L1103 589 L1105 589 L1107 589 L1109 589 L1111 589 L1113 589 L1115 589 L1117 589 L1119 589 L1121 589 L1123 589 L1125 589 L1127 589 L1129 589 L1131 589 L1132 589 L1132 590 L1131 590 L1131 591 L1130 591 L1130 592 L1129 592 L1129 593 L1128 593 L1128 594 L1126 594 L1126 595 L1125 595 L1125 596 L1124 596 L1124 597 L1123 597 L1123 598 L1122 598 L1122 599 L1121 599 L1121 600 L1120 600 L1120 601 L1119 601 L1119 602 L1118 602 L1118 603 L1116 603 L1116 604 L1115 604 L1115 605 L1114 605 L1114 606 L1113 606 L1113 607 L1112 607 L1112 608 L1111 608 L1111 609 L1110 609 L1110 610 L1109 610 L1109 611 L1108 611 L1108 612 L1107 612 L1107 613 L1106 613 L1106 614 L1105 614 L1105 615 L1103 615 L1103 616 L1102 616 L1102 617 L1101 617 L1101 618 L1100 618 L1100 619 L1099 619 L1099 620 L1098 620 L1098 621 L1097 621 L1097 622 L1096 622 L1096 623 L1095 623 L1095 624 L1094 624 L1094 625 L1093 625 L1093 626 L1092 626 L1092 627 L1091 627 L1091 628 L1090 628 L1090 629 L1089 629 L1089 630 L1088 630 L1088 631 L1087 631 L1087 632 L1085 632 L1085 633 L1084 633 L1084 635 L1082 635 L1082 636 L1081 636 L1081 637 L1080 637 L1080 638 L1079 638 L1079 639 L1078 639 L1078 640 L1077 640 L1077 641 L1076 641 L1076 642 L1075 642 L1075 643 L1074 643 L1074 644 L1073 644 L1073 645 L1072 645 L1072 646 L1071 646 L1071 647 L1070 647 L1070 648 L1069 648 L1069 649 L1068 649 L1068 650 L1067 650 L1067 651 L1066 651 L1066 652 L1065 652 L1065 653 L1064 653 L1064 654 L1062 654 L1062 655 L1061 655 L1061 656 L1060 656 L1060 658 L1059 658 L1059 659 L1058 659 L1058 660 L1056 660 L1056 661 L1055 661 L1055 662 L1054 662 L1054 663 L1053 663 L1053 664 L1052 664 L1052 665 L1051 665 L1051 666 L1050 666 L1050 667 L1049 667 L1049 668 L1048 668 L1048 669 L1047 669 L1047 670 L1046 670 L1046 671 L1045 671 L1045 672 L1044 672 L1044 673 L1043 673 L1043 674 L1042 674 L1042 675 L1041 675 L1041 676 L1040 676 L1040 678 L1040 680 L1040 682 L1040 684 L1040 686 L1041 686 L1041 688 L1041 690 L1041 692 L1041 694 L1041 696 L1041 698 L1042 698 L1042 700 L1042 702 L1042 704 L1042 706 L1042 708 L1043 708 L1043 710 L1043 712 L1043 714 L1043 716 L1044 716 L1044 718 L1044 720 L1044 722 L1044 723 L1045 723 L1045 725 L1045 727 L1045 729 L1045 730 L1046 730 L1046 732 L1046 734 L1046 736 L1046 738 L1047 738 L1047 740 L1047 742 L1047 744 L1046 744 L1046 743 L1045 743 L1045 742 L1044 742 L1044 741 L1043 741 L1043 740 L1042 740 L1042 739 L1041 739 L1041 738 L1040 738 L1040 737 L1039 737 L1039 736 L1038 736 L1038 735 L1037 735 L1037 734 L1036 734 L1036 733 L1035 733 L1035 732 L1034 732 L1034 731 L1033 731 L1033 730 L1032 730 L1032 729 L1030 729 L1030 728 L1029 728 L1029 727 L1028 727 L1028 726 L1027 726 L1027 725 L1025 725 L1025 724 L1024 724 L1024 723 L1022 723 L1022 722 L1021 722 L1021 721 L1020 721 L1020 720 L1018 720 L1018 719 L1017 719 L1017 718 L1015 718 L1015 717 L1014 717 L1014 716 L1012 716 L1012 715 L1011 715 L1011 714 L1009 714 L1009 713 L1007 713 L1007 712 L1006 712 L1006 711 L1004 711 L1004 710 L1002 710 L1002 709 L1000 709 L1000 708 L999 708 L999 707 L997 707 L997 706 L995 706 L995 705 L993 705 L993 704 L991 704 L991 703 L989 703 L989 702 L987 702 L987 701 L985 701 L985 700 L983 700 L983 699 L981 699 L981 698 L979 698 L978 698 L978 697 L976 697 L976 696 L974 696 L974 695 L972 695 L972 694 L970 694 L969 694 L969 693 L967 693 L967 692 L965 692 L965 691 L963 691 L962 691 L962 690 L960 690 L959 690 L959 689 L957 689 L957 688 L955 688 L954 688 L954 687 L952 687 L952 686 L950 686 L949 686 L949 685 L947 685 L946 685 L946 684 L944 684 L943 684 L943 683 L941 683 L940 683 L940 682 L938 682 L937 682 L937 681 L935 681 L935 680 L933 680 L932 680 L932 679 L930 679 L929 679 L929 678 L927 678 L926 678 L926 677 L924 677 L922 677 L922 676 L920 676 L919 676 L919 675 L917 675 L916 675 L916 674 L914 674 L912 674 L912 673 L910 673 L908 673 L908 672 L906 672 L905 672 L905 671 L903 671 L901 671 L901 670 L899 670 L897 670 L897 669 L895 669 L893 669 L892 669 L892 668 L890 668 L888 668 L888 667 L886 667 L884 667 L884 666 L882 666 L880 666 L879 666 L879 665 L877 665 L875 665 L874 665 L874 664 L872 664 L870 664 L869 664 L869 663 L867 663 L865 663 L864 663 L864 662 L862 662 L860 662 L859 662 L859 661 L857 661 L855 661 L854 661 L854 660 L852 660 L850 660 L848 660 L848 659 L846 659 L844 659 L842 659 L842 658 L840 658 L838 658 L837 658 Z M759 502 L760 502 L760 500 L760 499 L761 499 L761 497 L762 497 L762 495 L762 494 L763 494 L763 492 L764 492 L764 490 L764 489 L765 489 L765 487 L765 486 L766 486 L766 484 L766 483 L767 483 L767 481 L769 481 L769 483 L769 484 L770 484 L770 486 L770 487 L771 487 L771 489 L772 489 L772 491 L772 492 L773 492 L773 494 L774 494 L774 496 L774 497 L775 497 L775 499 L776 499 L776 501 L776 502 L777 502 L777 504 L778 504 L778 506 L778 507 L779 507 L779 509 L780 509 L780 511 L780 512 L781 512 L781 514 L782 514 L782 516 L783 516 L783 518 L784 518 L784 520 L784 521 L785 521 L785 523 L786 523 L786 525 L787 525 L787 527 L788 527 L788 529 L789 529 L789 531 L790 531 L790 533 L791 533 L791 534 L792 534 L792 536 L793 536 L793 538 L794 538 L794 540 L795 540 L795 542 L796 542 L796 544 L797 544 L797 545 L798 545 L798 547 L799 547 L799 549 L800 549 L800 550 L801 550 L801 552 L802 552 L802 553 L803 553 L803 555 L804 555 L804 557 L805 557 L805 558 L806 558 L806 560 L807 560 L807 562 L808 562 L808 563 L809 563 L809 565 L810 565 L810 566 L812 566 L813 566 L813 565 L815 565 L815 564 L817 564 L818 564 L818 563 L820 563 L820 562 L822 562 L823 562 L823 561 L825 561 L826 561 L826 560 L828 560 L828 559 L830 559 L830 558 L832 558 L833 558 L833 557 L835 557 L835 556 L837 556 L838 556 L838 555 L840 555 L840 554 L842 554 L842 553 L844 553 L844 552 L846 552 L846 551 L848 551 L848 550 L850 550 L850 549 L852 549 L853 549 L853 548 L855 548 L855 547 L857 547 L857 546 L859 546 L859 545 L860 545 L860 544 L862 544 L862 543 L864 543 L864 542 L865 542 L865 541 L867 541 L867 540 L869 540 L869 539 L871 539 L871 538 L873 538 L873 537 L875 537 L875 538 L876 538 L876 540 L876 541 L877 541 L877 543 L878 543 L878 545 L879 545 L879 547 L880 547 L880 549 L881 549 L881 551 L881 552 L882 552 L882 554 L883 554 L883 556 L884 556 L884 558 L885 558 L885 560 L886 560 L886 562 L887 562 L887 564 L888 564 L888 566 L888 567 L889 567 L889 569 L890 569 L890 571 L891 571 L891 572 L893 572 L893 571 L895 571 L895 570 L897 570 L898 570 L898 569 L900 569 L900 568 L902 568 L902 567 L904 567 L904 566 L906 566 L906 565 L908 565 L908 564 L910 564 L910 563 L912 563 L912 562 L914 562 L914 561 L915 561 L915 560 L917 560 L917 559 L919 559 L919 558 L920 558 L920 557 L922 557 L922 556 L923 556 L923 555 L925 555 L925 554 L926 554 L926 553 L928 553 L928 552 L929 552 L929 551 L931 551 L931 550 L932 550 L932 549 L934 549 L934 548 L935 548 L935 547 L936 547 L936 546 L937 546 L937 545 L939 545 L939 547 L938 547 L938 549 L938 551 L937 551 L937 553 L937 554 L936 554 L936 556 L936 557 L935 557 L935 559 L934 559 L934 561 L934 562 L933 562 L933 564 L932 564 L932 566 L931 566 L931 568 L930 568 L930 570 L929 570 L929 572 L928 572 L928 574 L927 574 L927 575 L926 575 L926 577 L925 577 L925 578 L924 578 L924 580 L923 580 L923 581 L922 581 L922 582 L921 582 L921 583 L920 583 L920 585 L919 585 L919 586 L918 586 L918 587 L917 587 L917 588 L916 588 L916 589 L915 589 L915 590 L914 590 L914 591 L913 591 L913 592 L912 592 L912 593 L911 593 L911 594 L910 594 L910 595 L909 595 L909 596 L907 596 L907 597 L905 597 L905 598 L903 598 L902 598 L902 599 L900 599 L900 600 L898 600 L898 601 L896 601 L895 601 L895 602 L893 602 L893 603 L891 603 L891 604 L889 604 L889 605 L887 605 L886 605 L886 606 L884 606 L884 607 L882 607 L882 608 L880 608 L880 609 L878 609 L878 610 L876 610 L876 611 L874 611 L873 611 L873 612 L871 612 L871 613 L869 613 L869 614 L868 614 L868 615 L866 615 L865 615 L865 616 L863 616 L863 617 L861 617 L861 618 L859 618 L859 619 L857 619 L857 620 L855 620 L855 621 L853 621 L853 622 L851 622 L851 623 L849 623 L849 624 L848 624 L848 625 L846 625 L846 626 L844 626 L844 627 L842 627 L842 628 L840 628 L840 629 L838 629 L838 630 L837 630 L837 631 L835 631 L835 632 L833 632 L833 633 L832 633 L832 634 L830 634 L830 635 L828 635 L828 636 L826 636 L826 637 L825 637 L825 638 L823 638 L823 639 L821 639 L821 640 L820 640 L820 641 L818 641 L818 642 L817 642 L817 643 L815 643 L815 644 L813 644 L813 645 L812 645 L812 646 L810 646 L810 647 L808 647 L808 648 L807 648 L807 649 L805 649 L805 650 L804 650 L804 651 L802 651 L802 652 L801 652 L801 653 L799 653 L799 654 L797 654 L797 655 L796 655 L796 656 L794 656 L794 657 L793 657 L793 658 L791 658 L791 659 L790 659 L790 660 L788 660 L788 661 L787 661 L787 662 L786 662 L786 663 L784 663 L784 664 L783 664 L783 665 L781 665 L781 666 L780 666 L780 667 L779 667 L779 668 L777 668 L777 669 L776 669 L776 670 L774 670 L774 671 L773 671 L773 672 L772 672 L772 673 L770 673 L770 674 L769 674 L769 675 L767 675 L767 674 L766 674 L766 673 L764 673 L764 672 L763 672 L763 671 L762 671 L762 670 L761 670 L761 669 L759 669 L759 668 L758 668 L758 667 L756 667 L756 666 L755 666 L755 665 L754 665 L754 664 L752 664 L752 663 L751 663 L751 662 L749 662 L749 661 L748 661 L748 660 L747 660 L747 659 L745 659 L745 658 L744 658 L744 657 L742 657 L742 656 L740 656 L740 655 L739 655 L739 654 L737 654 L737 653 L736 653 L736 652 L734 652 L734 651 L733 651 L733 650 L731 650 L731 649 L729 649 L729 648 L728 648 L728 647 L726 647 L726 646 L725 646 L725 645 L723 645 L723 644 L721 644 L721 643 L720 643 L720 642 L718 642 L718 641 L716 641 L716 640 L715 640 L715 639 L713 639 L713 638 L711 638 L711 637 L710 637 L710 636 L708 636 L708 635 L706 635 L706 634 L705 634 L705 633 L703 633 L703 632 L701 632 L701 631 L700 631 L700 630 L698 630 L698 629 L696 629 L696 628 L694 628 L694 627 L692 627 L692 626 L690 626 L690 625 L688 625 L688 624 L686 624 L686 623 L684 623 L684 622 L682 622 L682 621 L680 621 L680 620 L679 620 L679 619 L677 619 L677 618 L675 618 L675 617 L673 617 L673 616 L671 616 L671 615 L669 615 L669 614 L667 614 L667 613 L665 613 L665 612 L663 612 L662 612 L662 611 L660 611 L660 610 L658 610 L658 609 L656 609 L656 608 L654 608 L654 607 L652 607 L652 606 L650 606 L650 605 L648 605 L647 605 L647 604 L645 604 L645 603 L643 603 L643 602 L641 602 L641 601 L639 601 L639 600 L637 600 L636 600 L636 599 L634 599 L634 598 L632 598 L632 597 L630 597 L629 597 L629 596 L627 596 L627 595 L626 595 L626 594 L625 594 L625 593 L624 593 L624 592 L623 592 L623 591 L622 591 L622 590 L621 590 L621 589 L620 589 L620 588 L619 588 L619 587 L618 587 L618 586 L617 586 L617 584 L616 584 L616 583 L615 583 L615 582 L614 582 L614 580 L613 580 L613 579 L612 579 L612 577 L611 577 L611 576 L610 576 L610 574 L609 574 L609 573 L608 573 L608 571 L607 571 L607 569 L606 569 L606 567 L605 567 L605 565 L604 565 L604 563 L603 563 L603 561 L603 560 L602 560 L602 558 L601 558 L601 556 L600 556 L600 554 L600 553 L599 553 L599 551 L599 550 L598 550 L598 548 L598 547 L597 547 L597 545 L599 545 L599 546 L600 546 L600 547 L601 547 L601 548 L602 548 L602 549 L604 549 L604 550 L605 550 L605 551 L607 551 L607 552 L608 552 L608 553 L610 553 L610 554 L611 554 L611 555 L613 555 L613 556 L615 556 L615 557 L616 557 L616 558 L618 558 L618 559 L620 559 L620 560 L621 560 L621 561 L623 561 L623 562 L625 562 L625 563 L627 563 L627 564 L629 564 L629 565 L630 565 L630 566 L632 566 L632 567 L634 567 L634 568 L636 568 L636 569 L638 569 L638 570 L640 570 L640 571 L642 571 L643 571 L643 572 L645 572 L646 572 L646 570 L647 570 L647 568 L648 568 L648 566 L649 566 L649 564 L650 564 L650 562 L650 561 L651 561 L651 559 L652 559 L652 557 L653 557 L653 555 L654 555 L654 553 L655 553 L655 551 L656 551 L656 549 L656 548 L657 548 L657 547 L658 547 L658 545 L658 544 L659 544 L659 542 L660 542 L660 540 L660 539 L661 539 L661 537 L663 537 L663 538 L665 538 L665 539 L667 539 L667 540 L668 540 L668 541 L670 541 L670 542 L672 542 L672 543 L674 543 L674 544 L676 544 L676 545 L677 545 L677 546 L679 546 L679 547 L681 547 L681 548 L683 548 L683 549 L685 549 L685 550 L687 550 L687 551 L689 551 L689 552 L691 552 L692 552 L692 553 L694 553 L694 554 L696 554 L696 555 L698 555 L698 556 L700 556 L701 556 L701 557 L703 557 L703 558 L705 558 L706 558 L706 559 L708 559 L708 560 L710 560 L710 561 L712 561 L713 561 L713 562 L715 562 L715 563 L717 563 L718 563 L718 564 L720 564 L720 565 L722 565 L723 565 L723 566 L725 566 L726 566 L726 565 L727 565 L727 564 L728 564 L728 562 L729 562 L729 560 L730 560 L730 559 L731 559 L731 557 L732 557 L732 555 L733 555 L733 554 L734 554 L734 552 L735 552 L735 550 L736 550 L736 549 L737 549 L737 547 L738 547 L738 546 L739 546 L739 544 L740 544 L740 542 L741 542 L741 540 L742 540 L742 538 L743 538 L743 536 L744 536 L744 535 L745 535 L745 533 L746 533 L746 531 L747 531 L747 529 L748 529 L748 527 L749 527 L749 525 L750 525 L750 523 L751 523 L751 521 L752 521 L752 519 L752 518 L753 518 L753 516 L754 516 L754 514 L755 514 L755 512 L756 512 L756 510 L756 509 L757 509 L757 507 L758 507 L758 505 L758 504 L759 504 L759 503 L759 502 Z M474 532 L474 533 L475 533 L475 534 L477 534 L477 535 L479 535 L479 536 L480 536 L480 537 L482 537 L482 538 L483 538 L483 539 L485 539 L485 540 L487 540 L487 541 L488 541 L488 542 L490 542 L490 543 L491 543 L491 544 L493 544 L493 545 L495 545 L495 546 L496 546 L496 547 L498 547 L498 548 L500 548 L500 549 L501 549 L501 550 L503 550 L503 551 L505 551 L505 552 L506 552 L506 553 L508 553 L508 554 L510 554 L510 555 L511 555 L511 557 L511 559 L511 561 L511 563 L511 565 L511 566 L510 566 L510 568 L510 570 L510 572 L510 574 L510 575 L509 575 L509 577 L509 579 L509 581 L509 583 L509 585 L509 586 L508 586 L508 588 L508 590 L508 592 L506 592 L504 592 L502 592 L502 593 L500 593 L498 593 L496 593 L494 593 L492 593 L490 593 L488 593 L486 593 L486 594 L484 594 L483 594 L483 592 L483 591 L482 591 L482 589 L482 587 L482 585 L482 583 L481 583 L481 581 L481 579 L481 577 L481 575 L481 574 L480 574 L480 573 L479 573 L479 572 L477 572 L477 571 L476 571 L476 570 L474 570 L474 569 L473 569 L473 568 L471 568 L471 567 L470 567 L470 566 L468 566 L468 565 L467 565 L467 564 L465 564 L465 563 L464 563 L464 562 L463 562 L463 561 L461 561 L461 560 L460 560 L460 559 L458 559 L458 558 L457 558 L457 557 L455 557 L455 556 L454 556 L454 555 L452 555 L452 554 L451 554 L451 553 L450 553 L450 552 L448 552 L448 551 L447 551 L447 550 L445 550 L445 549 L443 549 L443 548 L442 548 L442 547 L440 547 L440 546 L439 546 L439 545 L437 545 L437 544 L435 544 L435 543 L434 543 L434 542 L432 542 L432 541 L431 541 L431 540 L430 540 L430 539 L429 539 L429 540 L430 540 L430 541 L431 541 L431 542 L432 542 L432 543 L433 543 L433 544 L434 544 L434 545 L435 545 L435 546 L436 546 L436 547 L437 547 L437 549 L438 549 L438 550 L439 550 L439 551 L440 551 L440 552 L441 552 L441 553 L442 553 L442 554 L443 554 L443 555 L444 555 L444 556 L445 556 L445 557 L446 557 L446 558 L447 558 L447 559 L448 559 L448 560 L449 560 L449 561 L450 561 L450 562 L451 562 L451 563 L452 563 L452 564 L453 564 L453 566 L454 566 L454 567 L455 567 L455 568 L456 568 L456 569 L457 569 L457 570 L458 570 L458 571 L459 571 L459 572 L460 572 L460 573 L461 573 L461 574 L462 574 L462 575 L463 575 L463 576 L464 576 L464 577 L465 577 L465 578 L466 578 L466 579 L467 579 L467 580 L468 580 L468 581 L470 581 L470 583 L470 584 L471 584 L471 586 L471 588 L471 590 L471 592 L471 593 L472 593 L472 595 L472 597 L472 599 L472 600 L473 600 L473 602 L473 604 L473 605 L471 605 L469 605 L467 605 L465 605 L463 605 L461 605 L459 605 L459 606 L460 606 L460 607 L461 607 L461 608 L462 608 L462 609 L463 609 L463 610 L464 610 L464 611 L465 611 L465 612 L466 612 L466 613 L467 613 L467 614 L468 614 L468 615 L469 615 L469 616 L470 616 L470 618 L471 618 L471 619 L472 619 L472 620 L473 620 L473 621 L474 621 L474 622 L475 622 L475 623 L476 623 L476 624 L477 624 L477 625 L478 625 L478 626 L479 626 L479 627 L480 627 L480 628 L481 628 L481 629 L482 629 L482 630 L483 630 L483 632 L484 632 L484 633 L485 633 L485 634 L486 634 L486 635 L487 635 L487 636 L488 636 L488 637 L489 637 L489 638 L490 638 L490 639 L491 639 L491 640 L492 640 L492 641 L493 641 L493 642 L494 642 L494 644 L496 644 L496 646 L497 646 L497 647 L498 647 L498 648 L499 648 L499 649 L500 649 L500 650 L501 650 L501 651 L502 651 L502 652 L503 652 L503 653 L504 653 L504 654 L505 654 L505 656 L506 656 L506 657 L507 657 L507 658 L508 658 L508 659 L509 659 L509 660 L510 660 L510 661 L511 661 L511 662 L512 662 L512 663 L513 663 L513 664 L514 664 L514 665 L515 665 L515 667 L515 668 L514 668 L514 670 L514 672 L514 674 L514 676 L514 678 L514 679 L513 679 L513 681 L513 683 L513 685 L513 687 L513 688 L512 688 L512 690 L512 692 L512 694 L511 694 L511 696 L511 698 L511 700 L511 702 L511 703 L510 703 L510 705 L510 706 L511 706 L511 705 L512 705 L512 704 L513 704 L513 703 L514 703 L514 702 L515 702 L515 701 L517 701 L517 700 L518 700 L518 699 L520 699 L520 698 L521 698 L521 697 L523 697 L523 696 L524 696 L524 695 L526 695 L526 694 L527 694 L527 693 L529 693 L529 692 L531 692 L531 691 L532 691 L532 690 L534 690 L534 689 L535 689 L535 688 L537 688 L537 687 L539 687 L539 686 L540 686 L540 685 L542 685 L542 684 L544 684 L544 683 L546 683 L546 682 L548 682 L548 681 L550 681 L550 680 L552 680 L552 679 L553 679 L553 678 L555 678 L555 677 L557 677 L557 676 L559 676 L559 675 L561 675 L561 674 L563 674 L563 673 L564 673 L564 672 L566 672 L566 671 L568 671 L568 670 L570 670 L570 669 L572 669 L572 668 L574 668 L574 667 L576 667 L576 666 L578 666 L578 665 L580 665 L580 664 L582 664 L582 663 L584 663 L584 662 L586 662 L586 661 L588 661 L588 660 L590 660 L590 659 L592 659 L593 659 L593 658 L595 658 L595 657 L597 657 L597 656 L599 656 L599 655 L601 655 L601 654 L602 654 L602 653 L604 653 L604 652 L606 652 L607 652 L607 651 L609 651 L609 650 L611 650 L611 649 L613 649 L614 649 L614 648 L616 648 L616 647 L618 647 L618 646 L620 646 L620 645 L622 645 L622 644 L624 644 L625 644 L625 643 L627 643 L627 642 L629 642 L629 641 L631 641 L632 641 L632 640 L634 640 L634 639 L636 639 L636 638 L638 638 L639 638 L639 637 L641 637 L641 636 L643 636 L644 636 L644 635 L646 635 L646 634 L648 634 L648 633 L650 633 L651 633 L651 632 L653 632 L653 631 L655 631 L656 631 L656 630 L658 630 L658 631 L659 631 L659 632 L661 632 L661 633 L663 633 L663 634 L665 634 L665 635 L667 635 L667 636 L669 636 L669 637 L671 637 L671 638 L673 638 L673 639 L675 639 L675 640 L677 640 L677 641 L679 641 L679 642 L681 642 L681 643 L683 643 L683 644 L685 644 L685 645 L686 645 L686 646 L688 646 L688 647 L690 647 L690 648 L692 648 L692 649 L694 649 L694 650 L695 650 L695 651 L697 651 L697 652 L698 652 L698 653 L700 653 L700 654 L702 654 L702 655 L703 655 L703 656 L705 656 L705 658 L703 658 L701 658 L699 658 L697 658 L696 658 L696 659 L694 659 L692 659 L690 659 L689 659 L689 660 L687 660 L685 660 L683 660 L683 661 L681 661 L679 661 L678 661 L678 662 L676 662 L674 662 L672 662 L671 662 L671 663 L669 663 L667 663 L666 663 L666 664 L664 664 L662 664 L661 664 L661 665 L659 665 L657 665 L656 665 L656 666 L654 666 L652 666 L652 667 L650 667 L648 667 L648 668 L646 668 L644 668 L643 668 L643 669 L641 669 L639 669 L639 670 L637 670 L635 670 L635 671 L633 671 L631 671 L631 672 L629 672 L627 672 L627 673 L625 673 L623 673 L623 674 L621 674 L620 674 L620 675 L618 675 L616 675 L616 676 L614 676 L613 676 L613 677 L611 677 L610 677 L610 678 L608 678 L607 678 L607 679 L605 679 L604 679 L604 680 L602 680 L602 681 L600 681 L598 681 L598 682 L596 682 L596 683 L594 683 L593 683 L593 684 L591 684 L590 684 L590 685 L588 685 L587 685 L587 686 L585 686 L585 687 L583 687 L582 687 L582 688 L580 688 L579 688 L579 689 L577 689 L577 690 L575 690 L574 690 L574 691 L572 691 L571 691 L571 692 L569 692 L569 693 L567 693 L567 694 L565 694 L564 694 L564 695 L562 695 L562 696 L560 696 L560 697 L558 697 L558 698 L556 698 L556 699 L554 699 L554 700 L552 700 L551 700 L551 701 L549 701 L549 702 L547 702 L547 703 L545 703 L545 704 L543 704 L543 705 L541 705 L541 706 L540 706 L540 707 L538 707 L538 708 L536 708 L536 709 L534 709 L534 710 L532 710 L532 711 L530 711 L530 712 L529 712 L529 713 L527 713 L527 714 L526 714 L526 715 L524 715 L524 716 L522 716 L522 717 L521 717 L521 718 L519 718 L519 719 L518 719 L518 720 L517 720 L517 721 L515 721 L515 722 L514 722 L514 723 L512 723 L512 724 L511 724 L511 725 L510 725 L510 726 L508 726 L508 727 L507 727 L507 728 L506 728 L506 729 L505 729 L505 730 L503 730 L503 731 L502 731 L502 732 L501 732 L501 733 L500 733 L500 734 L499 734 L499 735 L498 735 L498 736 L497 736 L497 737 L496 737 L496 738 L495 738 L495 739 L494 739 L494 740 L493 740 L493 741 L492 741 L492 742 L491 742 L491 743 L490 743 L490 744 L489 744 L489 742 L489 740 L489 739 L490 739 L490 737 L490 735 L490 733 L490 732 L491 732 L491 730 L491 728 L491 726 L492 726 L492 724 L492 722 L492 720 L492 718 L493 718 L493 716 L493 714 L493 712 L493 710 L494 710 L494 708 L494 706 L494 704 L494 702 L494 701 L495 701 L495 699 L495 697 L495 695 L495 693 L495 691 L496 691 L496 689 L496 687 L496 685 L496 683 L496 681 L496 679 L496 677 L496 676 L495 676 L495 675 L494 675 L494 674 L493 674 L493 673 L492 673 L492 672 L491 672 L491 671 L490 671 L490 670 L489 670 L489 669 L488 669 L488 668 L487 668 L487 667 L486 667 L486 666 L485 666 L485 665 L484 665 L484 664 L483 664 L483 663 L482 663 L482 662 L481 662 L481 661 L480 661 L480 660 L479 660 L479 659 L478 659 L478 658 L477 658 L477 657 L476 657 L476 656 L475 656 L475 655 L474 655 L474 654 L473 654 L473 653 L471 653 L471 652 L470 652 L470 651 L469 651 L469 650 L468 650 L468 649 L467 649 L467 648 L466 648 L466 647 L465 647 L465 646 L464 646 L464 645 L463 645 L463 644 L462 644 L462 643 L461 643 L461 642 L460 642 L460 641 L459 641 L459 640 L458 640 L458 639 L457 639 L457 638 L456 638 L456 637 L455 637 L455 636 L454 636 L454 635 L453 635 L453 634 L452 634 L452 633 L451 633 L451 632 L450 632 L450 631 L449 631 L449 630 L448 630 L448 629 L447 629 L447 628 L446 628 L446 627 L444 627 L444 626 L443 626 L443 625 L442 625 L442 624 L441 624 L441 623 L440 623 L440 622 L439 622 L439 621 L438 621 L438 620 L437 620 L437 619 L436 619 L436 618 L435 618 L435 617 L434 617 L434 616 L433 616 L433 615 L432 615 L432 614 L431 614 L431 613 L430 613 L430 612 L429 612 L429 611 L428 611 L428 610 L427 610 L427 609 L426 609 L426 608 L424 608 L424 607 L423 607 L423 606 L422 606 L422 605 L421 605 L421 604 L420 604 L420 603 L419 603 L419 602 L418 602 L418 601 L417 601 L417 600 L416 600 L416 599 L415 599 L415 598 L414 598 L414 597 L413 597 L413 596 L411 596 L411 595 L410 595 L410 594 L409 594 L409 593 L408 593 L408 592 L406 592 L406 591 L405 591 L405 589 L407 589 L409 589 L411 589 L413 589 L415 589 L417 589 L419 589 L421 589 L423 589 L425 589 L427 589 L429 589 L431 589 L433 589 L435 589 L437 589 L439 589 L441 589 L441 590 L443 590 L444 590 L444 589 L443 589 L443 588 L442 588 L442 587 L441 587 L441 586 L440 586 L440 585 L439 585 L439 584 L438 584 L438 582 L437 582 L437 581 L436 581 L436 580 L435 580 L435 579 L434 579 L434 578 L433 578 L433 577 L432 577 L432 576 L431 576 L431 575 L430 575 L430 574 L429 574 L429 573 L428 573 L428 572 L427 572 L427 570 L426 570 L426 569 L425 569 L425 568 L424 568 L424 567 L423 567 L423 566 L422 566 L422 565 L421 565 L421 564 L420 564 L420 563 L419 563 L419 561 L418 561 L418 560 L417 560 L417 559 L416 559 L416 558 L415 558 L415 557 L414 557 L414 556 L413 556 L413 555 L412 555 L412 553 L411 553 L411 552 L410 552 L410 551 L409 551 L409 550 L408 550 L408 549 L407 549 L407 548 L406 548 L406 547 L405 547 L405 546 L404 546 L404 544 L403 544 L403 543 L402 543 L402 542 L401 542 L401 541 L400 541 L400 540 L399 540 L399 539 L398 539 L398 538 L397 538 L397 537 L396 537 L396 535 L395 535 L395 534 L394 534 L394 533 L393 533 L393 532 L392 532 L392 531 L391 531 L391 530 L390 530 L390 529 L389 529 L389 528 L387 528 L386 528 L386 529 L384 529 L383 529 L383 530 L381 530 L379 530 L377 530 L375 530 L373 530 L373 529 L371 529 L370 529 L370 528 L368 528 L368 527 L366 527 L366 526 L365 526 L365 525 L364 525 L364 524 L363 524 L363 523 L362 523 L362 521 L361 521 L361 519 L360 519 L360 517 L359 517 L359 515 L359 513 L359 511 L359 509 L359 507 L359 505 L359 504 L360 504 L360 502 L360 501 L361 501 L361 500 L362 500 L362 498 L362 497 L361 497 L361 496 L360 496 L360 494 L359 494 L359 493 L358 493 L358 492 L357 492 L357 491 L356 491 L356 489 L355 489 L355 488 L354 488 L354 487 L353 487 L353 486 L352 486 L352 484 L351 484 L351 483 L350 483 L350 482 L349 482 L349 481 L348 481 L348 479 L347 479 L347 478 L346 478 L346 477 L345 477 L345 476 L344 476 L344 475 L343 475 L343 473 L342 473 L342 472 L341 472 L341 471 L340 471 L340 470 L339 470 L339 469 L338 469 L338 468 L337 468 L337 466 L336 466 L336 465 L335 465 L335 464 L334 464 L334 463 L333 463 L333 461 L332 461 L332 460 L331 460 L331 459 L330 459 L330 458 L329 458 L329 457 L328 457 L328 455 L327 455 L327 454 L326 454 L326 453 L325 453 L325 452 L324 452 L324 450 L323 450 L323 449 L322 449 L322 448 L321 448 L321 447 L320 447 L320 446 L319 446 L319 444 L318 444 L318 443 L317 443 L317 442 L316 442 L316 441 L315 441 L315 439 L314 439 L314 438 L313 438 L313 437 L312 437 L312 436 L311 436 L311 435 L310 435 L310 433 L309 433 L309 432 L308 432 L308 431 L307 431 L307 430 L306 430 L306 429 L305 429 L305 427 L304 427 L304 426 L303 426 L303 425 L302 425 L302 424 L301 424 L301 422 L300 422 L300 421 L299 421 L299 420 L298 420 L298 419 L297 419 L297 418 L296 418 L296 416 L295 416 L295 415 L294 415 L294 414 L293 414 L293 413 L292 413 L292 411 L291 411 L291 410 L290 410 L290 409 L289 409 L289 408 L288 408 L288 406 L287 406 L287 405 L286 405 L286 404 L285 404 L285 403 L284 403 L284 402 L283 402 L283 401 L282 401 L282 399 L284 399 L284 400 L286 400 L286 401 L287 401 L287 402 L289 402 L289 403 L291 403 L291 404 L293 404 L293 405 L295 405 L295 406 L297 406 L297 407 L299 407 L299 408 L300 408 L300 409 L302 409 L302 410 L304 410 L304 411 L306 411 L306 412 L308 412 L308 413 L310 413 L310 414 L311 414 L311 415 L313 415 L313 416 L315 416 L315 417 L317 417 L317 418 L319 418 L319 419 L321 419 L321 420 L323 420 L323 421 L325 421 L325 422 L327 422 L327 423 L329 423 L329 424 L331 424 L331 425 L332 425 L332 426 L334 426 L334 427 L336 427 L336 428 L338 428 L338 429 L340 429 L340 430 L342 430 L342 431 L344 431 L344 432 L345 432 L345 433 L347 433 L347 434 L349 434 L349 435 L351 435 L351 436 L353 436 L353 437 L355 437 L355 438 L356 438 L356 439 L358 439 L358 440 L360 440 L360 441 L362 441 L362 442 L364 442 L364 443 L366 443 L366 444 L368 444 L368 445 L370 445 L370 446 L371 446 L371 447 L373 447 L373 448 L375 448 L375 449 L377 449 L377 450 L379 450 L379 451 L381 451 L381 452 L383 452 L383 453 L384 453 L384 454 L386 454 L386 455 L388 455 L388 456 L390 456 L390 457 L392 457 L392 458 L394 458 L394 459 L396 459 L396 460 L398 460 L398 461 L400 461 L400 462 L401 462 L401 463 L403 463 L403 464 L405 464 L405 465 L407 465 L407 466 L409 466 L409 467 L411 467 L411 468 L413 468 L413 469 L415 469 L415 470 L417 470 L417 471 L419 471 L419 472 L420 472 L420 473 L422 473 L422 474 L424 474 L424 475 L426 475 L426 476 L428 476 L428 477 L430 477 L430 479 L428 479 L428 478 L426 478 L424 478 L422 478 L421 478 L421 477 L419 477 L417 477 L415 477 L413 477 L412 477 L412 476 L410 476 L408 476 L406 476 L404 476 L403 476 L403 475 L401 475 L399 475 L397 475 L395 475 L395 474 L393 474 L391 474 L389 474 L389 475 L391 475 L391 476 L392 476 L392 477 L393 477 L393 478 L395 478 L395 479 L396 479 L396 480 L398 480 L398 481 L399 481 L399 482 L400 482 L400 483 L402 483 L402 484 L403 484 L403 485 L404 485 L404 486 L406 486 L406 487 L407 487 L407 488 L409 488 L409 489 L410 489 L410 490 L411 490 L411 491 L413 491 L413 492 L414 492 L414 493 L416 493 L416 494 L417 494 L417 495 L419 495 L419 496 L420 496 L420 497 L422 497 L422 498 L423 498 L423 499 L425 499 L425 500 L426 500 L426 501 L428 501 L428 502 L429 502 L429 503 L431 503 L431 504 L432 504 L432 505 L433 505 L433 506 L435 506 L435 507 L436 507 L436 508 L438 508 L438 509 L439 509 L439 510 L440 510 L440 511 L442 511 L442 512 L443 512 L443 513 L445 513 L445 514 L446 514 L446 515 L448 515 L448 516 L449 516 L449 517 L451 517 L451 518 L452 518 L452 519 L454 519 L454 520 L455 520 L455 521 L457 521 L457 522 L458 522 L458 523 L460 523 L460 524 L461 524 L461 525 L463 525 L463 526 L464 526 L464 527 L466 527 L466 528 L467 528 L467 529 L469 529 L469 530 L471 530 L471 531 L472 531 L472 532 L474 532 Z M1148 517 L1148 518 L1149 518 L1149 519 L1151 519 L1151 520 L1153 520 L1155 520 L1157 520 L1159 520 L1160 520 L1160 519 L1162 519 L1163 519 L1163 518 L1164 518 L1164 517 L1165 517 L1165 516 L1166 516 L1166 514 L1167 514 L1167 512 L1168 512 L1168 510 L1168 508 L1168 506 L1168 504 L1168 503 L1167 503 L1167 501 L1166 501 L1166 500 L1165 500 L1165 499 L1164 499 L1164 498 L1163 498 L1163 497 L1161 497 L1161 496 L1159 496 L1158 496 L1158 495 L1156 495 L1154 495 L1153 495 L1153 496 L1151 496 L1150 496 L1150 497 L1149 497 L1149 498 L1147 498 L1147 499 L1146 499 L1146 501 L1145 501 L1145 502 L1144 502 L1144 504 L1144 506 L1143 506 L1143 508 L1143 509 L1144 509 L1144 511 L1144 513 L1145 513 L1145 515 L1146 515 L1146 516 L1147 516 L1147 517 L1148 517 Z M565 564 L565 563 L563 563 L561 563 L560 563 L560 562 L558 562 L556 562 L554 562 L554 561 L552 561 L550 561 L549 561 L549 560 L547 560 L545 560 L544 560 L544 559 L542 559 L540 559 L540 558 L538 558 L536 558 L535 558 L535 557 L533 557 L531 557 L531 556 L529 556 L527 556 L526 556 L526 555 L524 555 L524 553 L524 551 L524 549 L524 547 L524 545 L524 543 L524 541 L524 539 L524 537 L524 536 L523 536 L523 534 L523 532 L523 530 L523 528 L523 526 L523 525 L522 525 L522 523 L522 521 L522 519 L522 518 L521 518 L521 516 L521 514 L521 512 L520 512 L520 510 L520 508 L520 507 L519 507 L519 505 L519 503 L519 501 L518 501 L518 499 L518 497 L517 497 L517 495 L517 493 L516 493 L516 491 L516 489 L516 488 L515 488 L515 486 L515 484 L515 483 L514 483 L514 481 L514 479 L513 479 L513 477 L513 475 L512 475 L512 473 L512 471 L511 471 L511 469 L511 467 L510 467 L510 465 L510 463 L509 463 L509 461 L509 459 L508 459 L508 457 L508 456 L507 456 L507 454 L507 452 L506 452 L506 450 L506 448 L505 448 L505 446 L505 445 L504 445 L504 443 L504 442 L503 442 L503 440 L503 438 L502 438 L502 436 L502 435 L501 435 L501 433 L501 432 L500 432 L500 430 L500 428 L499 428 L499 426 L499 425 L498 425 L498 423 L498 422 L497 422 L497 420 L497 419 L496 419 L496 417 L496 415 L495 415 L495 413 L495 412 L494 412 L494 410 L494 409 L493 409 L493 407 L493 406 L492 406 L492 404 L492 403 L491 403 L491 401 L491 400 L490 400 L490 398 L490 396 L489 396 L489 394 L488 394 L488 392 L488 391 L487 391 L487 389 L487 388 L486 388 L486 386 L486 385 L485 385 L485 383 L485 382 L484 382 L484 380 L484 379 L483 379 L483 377 L482 377 L482 375 L482 374 L481 374 L481 372 L481 371 L480 371 L480 369 L480 368 L479 368 L479 366 L479 365 L478 365 L478 363 L478 362 L477 362 L477 360 L476 360 L476 358 L476 357 L475 357 L475 355 L475 354 L474 354 L474 352 L473 352 L473 350 L472 350 L472 348 L472 347 L471 347 L471 345 L471 344 L472 344 L472 345 L473 345 L473 346 L474 346 L474 348 L475 348 L475 349 L476 349 L476 350 L477 350 L477 351 L478 351 L478 352 L479 352 L479 353 L480 353 L480 354 L481 354 L481 355 L482 355 L482 356 L483 356 L483 357 L484 357 L484 358 L485 358 L485 359 L486 359 L486 360 L487 360 L487 361 L488 361 L488 362 L489 362 L489 363 L490 363 L490 364 L491 364 L491 365 L492 365 L492 366 L493 366 L493 367 L494 367 L494 368 L495 368 L495 369 L496 369 L496 370 L497 370 L497 371 L498 371 L498 372 L499 372 L499 373 L500 373 L500 374 L501 374 L501 375 L502 375 L502 376 L503 376 L503 377 L504 377 L504 378 L505 378 L505 379 L506 379 L506 380 L507 380 L507 381 L508 381 L508 382 L509 382 L509 383 L510 383 L510 384 L511 384 L511 385 L512 385 L512 386 L513 386 L513 387 L514 387 L514 388 L515 388 L515 389 L516 389 L516 390 L517 390 L517 391 L518 391 L518 392 L519 392 L519 393 L520 393 L520 394 L521 394 L521 395 L522 395 L522 396 L523 396 L523 397 L524 397 L524 398 L525 398 L525 399 L526 399 L526 400 L527 400 L527 401 L528 401 L528 402 L529 402 L529 403 L530 403 L530 404 L531 404 L531 405 L532 405 L532 406 L533 406 L533 407 L534 407 L534 408 L535 408 L535 409 L536 409 L536 410 L537 410 L537 411 L538 411 L538 412 L539 412 L539 413 L540 413 L540 414 L541 414 L541 415 L542 415 L542 416 L543 416 L543 417 L544 417 L544 418 L545 418 L545 419 L546 419 L546 420 L547 420 L547 421 L548 421 L548 422 L549 422 L549 423 L550 423 L550 424 L551 424 L551 425 L552 425 L552 426 L553 426 L553 427 L554 427 L554 428 L555 428 L555 429 L556 429 L556 430 L557 430 L557 431 L558 431 L558 432 L559 432 L559 433 L560 433 L560 434 L561 434 L561 435 L562 435 L562 436 L563 436 L563 437 L564 437 L564 438 L565 438 L565 439 L566 439 L566 440 L567 440 L567 441 L568 441 L568 442 L569 442 L569 443 L570 443 L570 444 L571 444 L571 445 L572 445 L572 446 L573 446 L573 447 L574 447 L574 448 L575 448 L575 449 L576 449 L576 450 L577 450 L577 451 L578 451 L578 452 L579 452 L579 453 L580 453 L580 454 L581 454 L581 455 L582 455 L582 456 L583 456 L583 457 L584 457 L584 458 L585 458 L585 459 L586 459 L586 460 L587 460 L587 461 L588 461 L588 462 L590 462 L590 463 L591 463 L591 464 L592 464 L592 466 L594 466 L594 467 L595 467 L595 468 L596 468 L596 469 L597 469 L597 470 L598 470 L598 471 L599 471 L599 472 L600 472 L600 473 L601 473 L601 474 L602 474 L602 475 L603 475 L603 476 L604 476 L604 477 L605 477 L605 478 L606 478 L606 479 L607 479 L607 480 L608 480 L608 481 L609 481 L609 482 L610 482 L610 483 L612 483 L612 485 L613 485 L613 486 L615 486 L615 487 L616 487 L616 488 L617 488 L617 489 L618 489 L618 490 L619 490 L619 491 L620 491 L620 492 L621 492 L621 493 L622 493 L622 494 L623 494 L623 495 L624 495 L624 496 L625 496 L625 497 L626 497 L626 498 L628 498 L628 499 L629 499 L629 500 L630 500 L630 501 L631 501 L631 502 L632 502 L632 503 L634 503 L634 504 L635 504 L635 505 L636 505 L636 506 L637 506 L637 507 L638 507 L638 508 L639 508 L639 509 L641 509 L641 510 L642 510 L642 511 L643 511 L643 512 L644 512 L644 513 L645 513 L645 514 L647 514 L647 516 L647 517 L646 517 L646 519 L645 519 L645 521 L644 521 L644 523 L644 524 L643 524 L643 526 L642 526 L642 528 L641 528 L641 530 L641 531 L640 531 L640 533 L639 533 L639 535 L638 535 L638 537 L638 538 L637 538 L637 540 L636 540 L636 542 L635 542 L635 544 L634 544 L634 546 L632 546 L632 545 L631 545 L631 544 L629 544 L629 543 L628 543 L628 542 L626 542 L626 541 L625 541 L625 540 L623 540 L623 539 L622 539 L622 538 L620 538 L620 537 L619 537 L619 536 L617 536 L617 535 L616 535 L616 534 L614 534 L614 533 L613 533 L613 532 L611 532 L611 531 L610 531 L610 530 L608 530 L608 529 L607 529 L607 528 L605 528 L605 527 L604 527 L604 526 L602 526 L602 525 L601 525 L601 524 L600 524 L600 523 L598 523 L598 522 L597 522 L597 521 L595 521 L595 520 L594 520 L594 519 L593 519 L593 518 L591 518 L591 517 L590 517 L590 516 L588 516 L588 515 L587 515 L587 514 L585 514 L585 513 L584 513 L584 512 L583 512 L583 511 L582 511 L582 509 L581 509 L581 508 L580 508 L580 506 L579 506 L579 504 L578 504 L578 503 L577 503 L577 501 L576 501 L576 500 L575 500 L575 498 L574 498 L574 497 L573 497 L573 495 L572 495 L572 493 L571 493 L571 492 L570 492 L570 490 L569 490 L569 488 L568 488 L568 487 L567 487 L567 485 L566 485 L566 484 L565 484 L565 482 L564 482 L564 481 L563 481 L563 479 L562 479 L562 478 L561 478 L561 476 L560 476 L560 475 L559 475 L559 473 L558 473 L558 472 L557 472 L557 470 L556 470 L556 469 L555 469 L555 467 L554 467 L554 466 L553 466 L553 464 L552 464 L552 463 L551 463 L551 461 L550 461 L550 460 L549 460 L549 458 L548 458 L548 457 L547 457 L547 456 L546 456 L546 454 L545 454 L545 453 L544 453 L544 451 L543 451 L543 450 L542 450 L542 449 L541 449 L541 447 L541 446 L542 446 L542 444 L543 444 L543 442 L543 440 L543 438 L543 436 L543 434 L542 434 L542 432 L541 432 L541 431 L540 431 L540 430 L539 430 L539 429 L538 429 L538 428 L536 428 L536 427 L534 427 L533 427 L533 426 L531 426 L529 426 L529 427 L527 427 L525 427 L525 428 L524 428 L524 429 L522 429 L522 430 L521 430 L521 432 L520 432 L520 433 L519 433 L519 435 L519 436 L518 436 L518 438 L518 440 L518 442 L519 442 L519 444 L519 445 L520 445 L520 447 L521 447 L521 448 L522 448 L522 449 L524 449 L524 450 L525 450 L525 451 L527 451 L529 451 L529 452 L531 452 L531 451 L533 451 L533 452 L534 452 L534 454 L535 454 L535 456 L536 456 L536 458 L537 458 L537 459 L538 459 L538 461 L539 461 L539 463 L540 463 L540 464 L541 464 L541 466 L542 466 L542 468 L543 468 L543 470 L544 470 L544 471 L545 471 L545 473 L546 473 L546 475 L547 475 L547 477 L548 477 L548 479 L549 479 L549 480 L550 480 L550 482 L551 482 L551 483 L552 483 L552 485 L553 485 L553 487 L554 487 L554 489 L555 489 L555 491 L556 491 L556 492 L557 492 L557 494 L558 494 L558 496 L559 496 L559 498 L560 498 L560 499 L561 499 L561 501 L562 501 L562 503 L563 503 L563 504 L564 504 L564 506 L565 506 L565 508 L566 508 L566 509 L567 509 L567 511 L568 511 L568 513 L569 513 L569 515 L570 515 L570 517 L571 517 L571 518 L572 518 L572 520 L572 522 L572 524 L572 525 L573 525 L573 527 L573 529 L573 531 L573 532 L574 532 L574 534 L574 536 L574 538 L575 538 L575 540 L575 542 L575 544 L575 545 L576 545 L576 547 L576 549 L576 551 L577 551 L577 553 L577 555 L578 555 L578 557 L578 559 L578 560 L579 560 L579 562 L579 564 L579 566 L577 566 L575 566 L575 565 L573 565 L571 565 L570 565 L570 564 L568 564 L567 564 L565 564 Z M762 581 L761 581 L761 582 L760 582 L760 583 L759 583 L759 584 L758 584 L758 585 L757 585 L757 587 L756 587 L756 588 L755 588 L755 589 L754 589 L754 590 L753 590 L753 591 L752 591 L752 592 L751 592 L751 594 L750 594 L750 595 L749 595 L749 596 L748 596 L748 597 L747 597 L747 599 L746 599 L746 600 L745 600 L745 601 L744 601 L744 602 L743 602 L743 603 L742 603 L742 605 L741 605 L741 606 L740 606 L740 607 L739 607 L739 609 L740 609 L740 610 L741 610 L741 611 L742 611 L742 612 L743 612 L743 613 L744 613 L744 615 L745 615 L745 616 L746 616 L746 617 L747 617 L747 618 L748 618 L748 620 L749 620 L749 621 L750 621 L750 622 L751 622 L751 623 L752 623 L752 624 L753 624 L753 625 L754 625 L754 627 L755 627 L755 628 L756 628 L756 629 L757 629 L757 630 L758 630 L758 631 L759 631 L759 632 L760 632 L760 633 L761 633 L761 634 L762 634 L762 636 L763 636 L763 637 L764 637 L764 638 L765 638 L765 639 L766 639 L766 640 L767 640 L767 641 L769 641 L769 640 L770 640 L770 639 L771 639 L771 638 L772 638 L772 637 L773 637 L773 636 L774 636 L774 635 L775 635 L775 633 L776 633 L776 632 L777 632 L777 631 L778 631 L778 630 L779 630 L779 629 L780 629 L780 628 L781 628 L781 627 L782 627 L782 626 L783 626 L783 624 L784 624 L784 623 L785 623 L785 622 L786 622 L786 621 L787 621 L787 620 L788 620 L788 618 L789 618 L789 617 L790 617 L790 616 L791 616 L791 615 L792 615 L792 614 L793 614 L793 613 L794 613 L794 611 L795 611 L795 610 L796 610 L796 609 L797 609 L797 607 L796 607 L796 606 L795 606 L795 605 L794 605 L794 604 L793 604 L793 602 L792 602 L792 601 L791 601 L791 600 L790 600 L790 599 L789 599 L789 597 L788 597 L788 596 L787 596 L787 595 L786 595 L786 594 L785 594 L785 592 L784 592 L784 591 L783 591 L783 590 L782 590 L782 589 L781 589 L781 588 L780 588 L780 586 L779 586 L779 585 L778 585 L778 584 L777 584 L777 583 L776 583 L776 582 L775 582 L775 580 L774 580 L774 579 L773 579 L773 578 L772 578 L772 577 L771 577 L771 576 L770 576 L770 574 L769 574 L769 573 L767 573 L767 575 L766 575 L766 576 L765 576 L765 577 L764 577 L764 578 L763 578 L763 580 L762 580 L762 581 Z M773 368 L773 366 L772 366 L772 364 L772 362 L772 360 L772 358 L771 358 L771 356 L771 354 L771 352 L770 352 L770 350 L770 348 L770 346 L770 344 L769 344 L769 342 L769 340 L769 338 L769 336 L768 336 L768 338 L768 339 L767 339 L767 341 L767 343 L767 345 L767 347 L766 347 L766 349 L766 351 L766 353 L766 354 L765 354 L765 356 L765 358 L765 360 L764 360 L764 362 L764 364 L764 366 L763 366 L763 368 L763 370 L763 372 L763 374 L762 374 L762 376 L762 378 L762 380 L761 380 L761 382 L761 384 L761 386 L760 386 L760 388 L760 390 L760 392 L759 392 L759 394 L759 396 L759 397 L758 397 L758 399 L758 401 L758 402 L757 402 L757 404 L757 406 L757 408 L756 408 L756 410 L756 412 L755 412 L755 414 L755 416 L755 417 L754 417 L754 419 L754 421 L753 421 L753 423 L753 425 L753 426 L752 426 L752 428 L752 430 L751 430 L751 432 L751 434 L750 434 L750 436 L750 438 L749 438 L749 440 L749 442 L748 442 L748 444 L748 446 L747 446 L747 448 L747 449 L746 449 L746 451 L746 453 L745 453 L745 455 L745 456 L744 456 L744 458 L744 460 L743 460 L743 462 L743 463 L742 463 L742 465 L742 467 L741 467 L741 469 L741 470 L740 470 L740 472 L740 473 L739 473 L739 475 L739 476 L738 476 L738 478 L738 479 L737 479 L737 481 L737 482 L736 482 L736 484 L736 485 L735 485 L735 487 L735 488 L734 488 L734 490 L733 490 L733 492 L733 493 L732 493 L732 495 L731 495 L731 497 L731 498 L730 498 L730 500 L730 501 L729 501 L729 503 L728 503 L728 505 L727 505 L727 507 L726 507 L726 509 L726 510 L725 510 L725 512 L724 512 L724 514 L724 515 L723 515 L723 517 L722 517 L722 519 L721 519 L721 521 L720 521 L720 523 L719 523 L719 525 L718 525 L718 527 L717 527 L717 529 L716 529 L716 531 L716 532 L715 532 L715 533 L714 533 L714 535 L714 536 L713 536 L713 538 L711 538 L711 537 L709 537 L709 536 L707 536 L707 535 L705 535 L705 534 L703 534 L703 533 L701 533 L701 532 L699 532 L698 532 L698 531 L696 531 L696 530 L694 530 L694 529 L692 529 L692 528 L690 528 L690 527 L688 527 L688 526 L686 526 L686 525 L684 525 L684 524 L682 524 L682 523 L680 523 L680 522 L678 522 L678 521 L676 521 L676 520 L674 520 L674 519 L672 519 L672 518 L670 518 L670 517 L668 517 L668 516 L667 516 L667 515 L668 515 L668 513 L669 513 L669 511 L670 511 L670 510 L671 510 L671 508 L672 508 L672 507 L673 507 L673 505 L674 505 L674 503 L675 503 L675 502 L676 502 L676 500 L677 500 L677 498 L678 498 L678 496 L679 496 L679 494 L680 494 L680 492 L681 492 L681 490 L682 490 L682 488 L683 488 L683 486 L684 486 L684 484 L685 484 L685 482 L686 482 L686 480 L687 480 L687 478 L688 478 L688 476 L688 475 L689 475 L689 473 L690 473 L690 471 L691 471 L691 469 L692 469 L692 467 L693 467 L693 465 L693 464 L694 464 L694 462 L695 462 L695 460 L695 459 L696 459 L696 457 L697 457 L697 455 L698 455 L698 453 L698 452 L699 452 L699 450 L700 450 L700 448 L700 447 L701 447 L701 445 L701 444 L702 444 L702 442 L703 442 L703 440 L703 439 L704 439 L704 437 L705 437 L705 435 L705 434 L706 434 L706 432 L706 431 L707 431 L707 429 L708 429 L708 427 L708 426 L709 426 L709 424 L709 423 L710 423 L710 421 L711 421 L711 419 L711 418 L712 418 L712 416 L712 414 L713 414 L713 412 L714 412 L714 410 L714 408 L715 408 L715 406 L715 405 L716 405 L716 403 L716 402 L717 402 L717 400 L717 399 L718 399 L718 397 L718 396 L719 396 L719 394 L719 393 L720 393 L720 391 L720 389 L721 389 L721 387 L722 387 L722 385 L722 383 L723 383 L723 381 L723 380 L724 380 L724 378 L724 376 L725 376 L725 374 L725 373 L726 373 L726 371 L726 369 L727 369 L727 367 L727 366 L728 366 L728 364 L728 362 L729 362 L729 360 L729 359 L730 359 L730 357 L730 356 L731 356 L731 354 L731 352 L732 352 L732 350 L732 348 L733 348 L733 346 L733 345 L734 345 L734 343 L734 341 L735 341 L735 339 L735 337 L736 337 L736 335 L736 333 L736 332 L737 332 L737 330 L737 328 L738 328 L738 326 L738 324 L739 324 L739 322 L739 320 L740 320 L740 318 L740 316 L740 315 L741 315 L741 313 L741 311 L742 311 L742 309 L742 307 L743 307 L743 305 L743 303 L743 302 L744 302 L744 300 L744 298 L744 297 L745 297 L745 295 L745 293 L746 293 L746 291 L746 289 L746 288 L747 288 L747 286 L747 284 L747 283 L748 283 L748 281 L748 279 L748 278 L749 278 L749 276 L749 274 L749 273 L750 273 L750 271 L750 269 L750 267 L751 267 L751 265 L751 263 L751 261 L752 261 L752 259 L752 257 L752 255 L753 255 L753 253 L753 251 L753 249 L754 249 L754 247 L754 245 L754 243 L755 243 L755 241 L755 239 L755 237 L755 236 L756 236 L756 234 L756 232 L756 230 L756 229 L757 229 L757 227 L757 225 L757 223 L757 221 L758 221 L758 219 L758 217 L758 215 L758 213 L759 213 L759 211 L759 209 L759 208 L761 208 L763 208 L765 208 L767 208 L769 208 L771 208 L773 208 L775 208 L777 208 L777 210 L777 212 L777 214 L778 214 L778 216 L778 218 L778 220 L778 222 L779 222 L779 224 L779 226 L779 228 L779 230 L780 230 L780 232 L780 234 L780 236 L781 236 L781 238 L781 240 L781 242 L781 243 L782 243 L782 245 L782 247 L782 249 L782 250 L783 250 L783 252 L783 254 L783 255 L784 255 L784 257 L784 259 L784 261 L785 261 L785 263 L785 265 L785 267 L786 267 L786 269 L786 271 L786 272 L787 272 L787 274 L787 276 L787 278 L788 278 L788 280 L788 282 L789 282 L789 284 L789 286 L789 287 L790 287 L790 289 L790 291 L790 292 L791 292 L791 294 L791 296 L791 297 L792 297 L792 299 L792 301 L792 302 L793 302 L793 304 L793 306 L794 306 L794 308 L794 310 L795 310 L795 312 L795 314 L795 315 L796 315 L796 317 L796 319 L797 319 L797 321 L797 323 L798 323 L798 325 L798 327 L798 328 L799 328 L799 330 L799 332 L800 332 L800 334 L800 336 L801 336 L801 338 L801 340 L802 340 L802 342 L802 344 L803 344 L803 346 L803 348 L804 348 L804 350 L804 351 L805 351 L805 353 L805 355 L806 355 L806 357 L806 359 L807 359 L807 361 L807 362 L808 362 L808 364 L808 366 L809 366 L809 368 L809 369 L810 369 L810 371 L810 372 L811 372 L811 374 L811 376 L812 376 L812 378 L812 379 L813 379 L813 381 L813 382 L814 382 L814 384 L814 386 L815 386 L815 388 L815 389 L816 389 L816 391 L816 392 L817 392 L817 394 L817 395 L818 395 L818 397 L818 398 L819 398 L819 400 L819 402 L820 402 L820 404 L820 405 L821 405 L821 407 L821 408 L822 408 L822 410 L822 411 L823 411 L823 413 L823 414 L824 414 L824 416 L824 417 L825 417 L825 419 L825 420 L826 420 L826 422 L827 422 L827 424 L827 425 L828 425 L828 427 L828 428 L829 428 L829 430 L829 431 L830 431 L830 433 L830 434 L831 434 L831 436 L831 437 L832 437 L832 439 L833 439 L833 441 L833 442 L834 442 L834 444 L835 444 L835 446 L835 447 L836 447 L836 449 L837 449 L837 451 L837 452 L838 452 L838 454 L839 454 L839 456 L839 457 L840 457 L840 459 L840 460 L841 460 L841 462 L842 462 L842 464 L843 464 L843 466 L843 467 L844 467 L844 469 L845 469 L845 471 L846 471 L846 473 L847 473 L847 475 L848 475 L848 477 L848 478 L849 478 L849 480 L850 480 L850 482 L851 482 L851 484 L852 484 L852 486 L853 486 L853 488 L854 488 L854 490 L855 490 L855 492 L856 492 L856 494 L857 494 L857 496 L858 496 L858 498 L859 498 L859 499 L860 499 L860 501 L861 501 L861 503 L862 503 L862 504 L863 504 L863 506 L864 506 L864 508 L865 508 L865 509 L866 509 L866 511 L867 511 L867 512 L868 512 L868 514 L869 514 L869 516 L867 516 L867 517 L865 517 L865 518 L864 518 L864 519 L862 519 L862 520 L860 520 L860 521 L858 521 L858 522 L856 522 L856 523 L854 523 L854 524 L852 524 L852 525 L850 525 L850 526 L848 526 L848 527 L846 527 L846 528 L844 528 L844 529 L842 529 L842 530 L840 530 L840 531 L838 531 L838 532 L836 532 L836 533 L834 533 L834 534 L832 534 L832 535 L830 535 L829 535 L829 536 L827 536 L827 537 L825 537 L825 538 L823 538 L823 536 L822 536 L822 534 L821 534 L821 532 L820 532 L820 530 L819 530 L819 528 L819 527 L818 527 L818 525 L817 525 L817 523 L816 523 L816 521 L815 521 L815 519 L814 519 L814 517 L813 517 L813 515 L813 514 L812 514 L812 512 L811 512 L811 510 L810 510 L810 508 L809 508 L809 506 L809 505 L808 505 L808 503 L807 503 L807 501 L807 500 L806 500 L806 498 L805 498 L805 496 L805 495 L804 495 L804 493 L803 493 L803 491 L803 490 L802 490 L802 488 L802 487 L801 487 L801 485 L801 484 L800 484 L800 482 L799 482 L799 480 L799 479 L798 479 L798 477 L798 475 L797 475 L797 473 L797 472 L796 472 L796 470 L796 469 L795 469 L795 467 L795 466 L794 466 L794 464 L794 462 L793 462 L793 460 L793 459 L792 459 L792 457 L792 455 L791 455 L791 453 L791 452 L790 452 L790 450 L790 448 L789 448 L789 446 L789 445 L788 445 L788 443 L788 441 L787 441 L787 439 L787 438 L786 438 L786 436 L786 434 L786 433 L785 433 L785 431 L785 429 L784 429 L784 427 L784 425 L783 425 L783 423 L783 421 L783 420 L782 420 L782 418 L782 416 L781 416 L781 414 L781 412 L781 411 L780 411 L780 409 L780 407 L780 406 L779 406 L779 404 L779 402 L779 401 L778 401 L778 399 L778 397 L778 396 L777 396 L777 394 L777 392 L777 391 L776 391 L776 389 L776 387 L776 385 L775 385 L775 383 L775 381 L775 379 L775 378 L774 378 L774 376 L774 374 L774 372 L773 372 L773 370 L773 369 L773 368 Z M995 733 L993 733 L993 732 L991 732 L991 731 L989 731 L988 731 L988 730 L986 730 L986 729 L984 729 L983 729 L983 728 L981 728 L980 728 L980 727 L978 727 L978 726 L976 726 L975 726 L975 725 L973 725 L973 724 L971 724 L969 724 L969 723 L967 723 L967 722 L965 722 L963 722 L963 721 L961 721 L961 720 L959 720 L957 720 L957 719 L955 719 L954 719 L954 718 L952 718 L952 717 L950 717 L948 717 L948 716 L946 716 L945 716 L945 715 L943 715 L942 715 L942 714 L940 714 L939 714 L939 713 L937 713 L936 713 L936 712 L934 712 L932 712 L932 711 L930 711 L929 711 L929 710 L927 710 L925 710 L925 709 L923 709 L921 709 L921 708 L919 708 L917 708 L917 707 L915 707 L913 707 L913 706 L911 706 L909 706 L909 705 L907 705 L905 705 L904 705 L904 704 L902 704 L901 704 L901 703 L899 703 L897 703 L896 703 L896 702 L894 702 L892 702 L891 702 L891 701 L889 701 L887 701 L887 700 L885 700 L883 700 L882 700 L882 699 L880 699 L878 699 L876 699 L876 698 L874 698 L872 698 L871 698 L871 697 L869 697 L867 697 L866 697 L866 696 L864 696 L862 696 L860 696 L859 696 L859 695 L857 695 L855 695 L853 695 L853 694 L851 694 L849 694 L847 694 L847 693 L845 693 L843 693 L841 693 L839 693 L839 692 L837 692 L835 692 L833 692 L831 692 L830 692 L830 691 L828 691 L826 691 L824 691 L822 691 L821 691 L821 690 L819 690 L817 690 L815 690 L813 690 L811 690 L809 690 L808 690 L808 691 L807 691 L807 692 L805 692 L805 693 L804 693 L804 694 L802 694 L802 695 L801 695 L801 696 L800 696 L800 697 L798 697 L798 698 L797 698 L797 699 L795 699 L795 700 L794 700 L794 701 L792 701 L792 702 L791 702 L791 703 L789 703 L789 704 L788 704 L788 705 L786 705 L786 706 L785 706 L785 707 L784 707 L784 708 L782 708 L782 709 L781 709 L781 710 L779 710 L779 711 L778 711 L778 712 L777 712 L777 713 L775 713 L775 714 L774 714 L774 715 L772 715 L772 716 L771 716 L771 717 L770 717 L770 718 L769 718 L769 719 L767 719 L767 718 L766 718 L766 717 L765 717 L765 716 L764 716 L764 715 L762 715 L762 714 L761 714 L761 713 L760 713 L760 712 L758 712 L758 711 L757 711 L757 710 L756 710 L756 709 L754 709 L754 708 L753 708 L753 707 L751 707 L751 706 L750 706 L750 705 L749 705 L749 704 L747 704 L747 703 L746 703 L746 702 L744 702 L744 701 L743 701 L743 700 L741 700 L741 699 L740 699 L740 698 L739 698 L739 697 L737 697 L737 696 L736 696 L736 695 L734 695 L734 694 L733 694 L733 693 L731 693 L731 692 L730 692 L730 691 L728 691 L728 690 L726 690 L726 689 L724 689 L724 690 L722 690 L720 690 L718 690 L716 690 L714 690 L712 690 L712 691 L710 691 L708 691 L706 691 L704 691 L703 691 L703 692 L701 692 L699 692 L697 692 L695 692 L695 693 L693 693 L691 693 L689 693 L688 693 L688 694 L686 694 L684 694 L682 694 L682 695 L680 695 L678 695 L676 695 L676 696 L674 696 L672 696 L670 696 L670 697 L668 697 L666 697 L665 697 L665 698 L663 698 L661 698 L659 698 L659 699 L657 699 L655 699 L654 699 L654 700 L652 700 L650 700 L649 700 L649 701 L647 701 L645 701 L644 701 L644 702 L642 702 L640 702 L640 703 L638 703 L636 703 L636 704 L634 704 L632 704 L632 705 L630 705 L628 705 L627 705 L627 706 L625 706 L623 706 L623 707 L621 707 L619 707 L619 708 L617 708 L615 708 L615 709 L613 709 L611 709 L611 710 L609 710 L607 710 L607 711 L605 711 L604 711 L604 712 L602 712 L600 712 L600 713 L598 713 L596 713 L596 714 L594 714 L593 714 L593 715 L591 715 L590 715 L590 716 L588 716 L587 716 L587 717 L585 717 L584 717 L584 718 L582 718 L581 718 L581 719 L579 719 L578 719 L578 720 L576 720 L575 720 L575 721 L573 721 L572 721 L572 722 L570 722 L569 722 L569 723 L567 723 L567 724 L565 724 L564 724 L564 725 L562 725 L561 725 L561 726 L559 726 L558 726 L558 727 L556 727 L556 728 L554 728 L553 728 L553 729 L551 729 L550 729 L550 730 L548 730 L548 731 L546 731 L545 731 L545 732 L543 732 L543 733 L541 733 L540 733 L540 734 L538 734 L538 735 L536 735 L536 736 L534 736 L533 736 L533 737 L531 737 L531 738 L529 738 L529 739 L527 739 L526 739 L526 740 L524 740 L524 741 L522 741 L522 742 L520 742 L519 742 L519 743 L517 743 L517 744 L515 744 L515 745 L513 745 L513 746 L511 746 L511 747 L509 747 L509 748 L507 748 L507 749 L505 749 L504 749 L504 750 L503 750 L503 751 L501 751 L500 751 L500 752 L499 752 L499 753 L497 753 L497 754 L495 754 L495 755 L493 755 L493 756 L491 756 L491 757 L489 757 L489 758 L488 758 L488 759 L486 759 L486 758 L487 758 L487 756 L488 756 L488 755 L489 755 L489 754 L490 754 L490 752 L491 752 L491 751 L492 751 L492 749 L493 749 L493 748 L494 748 L494 747 L495 747 L495 746 L496 746 L496 745 L497 745 L497 744 L498 744 L498 743 L499 743 L499 742 L500 742 L500 741 L501 741 L501 740 L503 740 L503 739 L504 739 L504 738 L505 738 L505 737 L506 737 L506 736 L507 736 L507 735 L508 735 L508 734 L510 734 L510 733 L511 733 L511 732 L513 732 L513 731 L515 731 L515 730 L516 730 L516 729 L518 729 L518 728 L519 728 L519 727 L521 727 L521 726 L522 726 L522 725 L524 725 L524 724 L526 724 L526 723 L528 723 L528 722 L529 722 L529 721 L531 721 L531 720 L533 720 L533 719 L535 719 L535 718 L536 718 L536 717 L538 717 L538 716 L540 716 L540 715 L542 715 L542 714 L544 714 L544 713 L546 713 L546 712 L548 712 L548 711 L550 711 L550 710 L552 710 L552 709 L554 709 L554 708 L556 708 L556 707 L558 707 L559 707 L559 706 L561 706 L561 705 L563 705 L563 704 L565 704 L565 703 L567 703 L568 703 L568 702 L570 702 L570 701 L572 701 L573 701 L573 700 L575 700 L576 700 L576 699 L578 699 L579 699 L579 698 L581 698 L582 698 L582 697 L584 697 L584 696 L586 696 L587 696 L587 695 L589 695 L590 695 L590 694 L592 694 L593 694 L593 693 L595 693 L595 692 L597 692 L599 692 L599 691 L601 691 L602 691 L602 690 L604 690 L605 690 L605 689 L607 689 L608 689 L608 688 L610 688 L611 688 L611 687 L613 687 L615 687 L615 686 L617 686 L618 686 L618 685 L620 685 L621 685 L621 684 L623 684 L625 684 L625 683 L627 683 L629 683 L629 682 L631 682 L633 682 L634 682 L634 681 L636 681 L637 681 L637 680 L639 680 L641 680 L641 679 L643 679 L645 679 L646 679 L646 678 L648 678 L650 678 L650 677 L652 677 L654 677 L655 677 L655 676 L657 676 L659 676 L659 675 L661 675 L663 675 L664 675 L664 674 L666 674 L668 674 L669 674 L669 673 L671 673 L673 673 L674 673 L674 672 L676 672 L678 672 L680 672 L680 671 L682 671 L684 671 L685 671 L685 670 L687 670 L689 670 L691 670 L693 670 L693 669 L695 669 L697 669 L699 669 L699 668 L701 668 L703 668 L705 668 L707 668 L708 668 L708 667 L710 667 L712 667 L714 667 L716 667 L718 667 L720 667 L722 667 L722 668 L724 668 L724 669 L725 669 L725 670 L727 670 L727 671 L729 671 L729 672 L730 672 L730 673 L732 673 L732 674 L733 674 L733 675 L735 675 L735 676 L736 676 L736 677 L738 677 L738 678 L739 678 L739 679 L741 679 L741 680 L742 680 L742 681 L744 681 L744 682 L745 682 L745 683 L747 683 L747 684 L748 684 L748 685 L750 685 L750 686 L751 686 L751 687 L752 687 L752 688 L754 688 L754 689 L755 689 L755 690 L757 690 L757 691 L758 691 L758 692 L759 692 L759 693 L761 693 L761 694 L762 694 L762 695 L764 695 L764 696 L765 696 L765 697 L766 697 L766 698 L768 698 L770 698 L770 697 L771 697 L771 696 L773 696 L773 695 L774 695 L774 694 L776 694 L776 693 L777 693 L777 692 L779 692 L779 691 L780 691 L780 690 L781 690 L781 689 L783 689 L783 688 L784 688 L784 687 L785 687 L785 686 L787 686 L787 685 L788 685 L788 684 L790 684 L790 683 L791 683 L791 682 L793 682 L793 681 L794 681 L794 680 L795 680 L795 679 L797 679 L797 678 L798 678 L798 677 L800 677 L800 676 L802 676 L802 675 L803 675 L803 674 L805 674 L805 673 L806 673 L806 672 L808 672 L808 671 L809 671 L809 670 L811 670 L811 669 L812 669 L812 668 L814 668 L814 667 L816 667 L818 667 L820 667 L822 667 L824 667 L826 667 L827 667 L827 668 L829 668 L831 668 L833 668 L835 668 L836 668 L836 669 L838 669 L840 669 L842 669 L844 669 L844 670 L846 670 L848 670 L850 670 L850 671 L852 671 L854 671 L856 671 L856 672 L858 672 L860 672 L862 672 L862 673 L864 673 L866 673 L867 673 L867 674 L869 674 L871 674 L872 674 L872 675 L874 675 L876 675 L877 675 L877 676 L879 676 L881 676 L882 676 L882 677 L884 677 L886 677 L886 678 L888 678 L890 678 L890 679 L892 679 L894 679 L894 680 L896 680 L898 680 L898 681 L900 681 L902 681 L902 682 L904 682 L906 682 L906 683 L908 683 L909 683 L909 684 L911 684 L913 684 L913 685 L915 685 L917 685 L917 686 L919 686 L921 686 L921 687 L923 687 L924 687 L924 688 L926 688 L928 688 L928 689 L930 689 L930 690 L932 690 L934 690 L934 691 L936 691 L937 691 L937 692 L939 692 L940 692 L940 693 L942 693 L943 693 L943 694 L945 694 L946 694 L946 695 L948 695 L949 695 L949 696 L951 696 L952 696 L952 697 L954 697 L955 697 L955 698 L957 698 L957 699 L959 699 L960 699 L960 700 L962 700 L962 701 L964 701 L965 701 L965 702 L967 702 L968 702 L968 703 L970 703 L970 704 L972 704 L972 705 L974 705 L974 706 L976 706 L977 706 L977 707 L979 707 L979 708 L981 708 L981 709 L983 709 L984 709 L984 710 L985 710 L985 711 L987 711 L988 711 L988 712 L990 712 L990 713 L991 713 L991 714 L993 714 L994 714 L994 715 L996 715 L996 716 L997 716 L997 717 L999 717 L999 718 L1001 718 L1001 719 L1003 719 L1003 720 L1005 720 L1005 721 L1007 721 L1007 722 L1008 722 L1008 723 L1010 723 L1010 724 L1012 724 L1012 725 L1014 725 L1014 726 L1015 726 L1015 727 L1017 727 L1017 728 L1018 728 L1018 729 L1020 729 L1020 730 L1021 730 L1021 731 L1023 731 L1023 732 L1024 732 L1024 733 L1026 733 L1026 734 L1027 734 L1027 735 L1029 735 L1029 736 L1030 736 L1030 737 L1031 737 L1031 738 L1032 738 L1032 739 L1034 739 L1034 740 L1035 740 L1035 741 L1036 741 L1036 742 L1037 742 L1037 743 L1038 743 L1038 744 L1039 744 L1039 745 L1040 745 L1040 746 L1041 746 L1041 747 L1042 747 L1042 748 L1043 748 L1043 749 L1044 749 L1044 750 L1045 750 L1045 752 L1046 752 L1046 753 L1047 753 L1047 754 L1048 754 L1048 756 L1049 756 L1049 757 L1050 757 L1050 759 L1048 759 L1048 758 L1047 758 L1047 757 L1045 757 L1045 756 L1043 756 L1043 755 L1041 755 L1041 754 L1040 754 L1040 753 L1038 753 L1038 752 L1036 752 L1036 751 L1034 751 L1034 750 L1032 750 L1032 749 L1030 749 L1029 749 L1029 748 L1027 748 L1027 747 L1025 747 L1025 746 L1023 746 L1023 745 L1021 745 L1021 744 L1019 744 L1019 743 L1017 743 L1017 742 L1015 742 L1015 741 L1013 741 L1012 741 L1012 740 L1010 740 L1010 739 L1008 739 L1008 738 L1006 738 L1005 738 L1005 737 L1003 737 L1003 736 L1001 736 L1001 735 L999 735 L998 735 L998 734 L996 734 L996 733 L995 733 Z M374 518 L374 519 L376 519 L376 520 L378 520 L380 520 L382 520 L384 520 L385 520 L385 519 L387 519 L387 518 L388 518 L388 517 L390 517 L390 515 L391 515 L391 514 L392 514 L392 512 L392 511 L393 511 L393 509 L393 507 L393 505 L392 505 L392 503 L392 502 L391 502 L391 500 L390 500 L390 499 L389 499 L389 498 L388 498 L388 497 L386 497 L386 496 L384 496 L383 496 L383 495 L381 495 L379 495 L377 495 L377 496 L375 496 L374 496 L374 497 L373 497 L373 498 L372 498 L372 499 L371 499 L371 500 L370 500 L370 501 L369 501 L369 503 L368 503 L368 505 L368 507 L368 509 L368 511 L368 512 L369 512 L369 514 L370 514 L370 516 L371 516 L371 517 L372 517 L372 518 L374 518 Z M526 607 L527 607 L527 605 L527 603 L527 601 L527 599 L527 597 L527 595 L527 593 L528 593 L528 591 L528 589 L528 587 L528 585 L528 583 L528 582 L529 582 L529 580 L529 578 L529 576 L530 576 L530 575 L531 575 L531 576 L533 576 L535 576 L535 577 L537 577 L539 577 L539 578 L541 578 L543 578 L544 578 L544 579 L546 579 L548 579 L549 579 L549 580 L551 580 L553 580 L554 580 L554 581 L556 581 L558 581 L558 582 L560 582 L562 582 L563 582 L563 583 L565 583 L567 583 L567 584 L569 584 L571 584 L571 585 L573 585 L575 585 L576 585 L576 586 L578 586 L580 586 L581 586 L581 587 L583 587 L585 587 L586 587 L586 588 L588 588 L590 588 L591 588 L591 590 L592 590 L592 592 L593 592 L593 593 L594 593 L594 595 L595 595 L595 596 L596 596 L596 598 L597 598 L597 599 L598 599 L598 600 L599 600 L599 601 L600 601 L600 602 L601 602 L601 604 L602 604 L602 605 L603 605 L603 606 L605 606 L605 607 L606 607 L606 608 L607 608 L607 609 L608 609 L608 610 L609 610 L609 611 L610 611 L610 612 L611 612 L611 613 L613 613 L613 614 L614 614 L614 615 L616 615 L616 616 L617 616 L617 617 L619 617 L619 618 L620 618 L620 619 L622 619 L622 620 L624 620 L624 622 L622 622 L622 623 L620 623 L620 624 L618 624 L618 625 L616 625 L616 626 L614 626 L614 627 L612 627 L611 627 L611 628 L609 628 L609 629 L607 629 L607 630 L605 630 L605 631 L603 631 L603 632 L601 632 L601 633 L599 633 L599 634 L597 634 L597 635 L595 635 L595 636 L593 636 L593 637 L591 637 L591 638 L589 638 L589 639 L587 639 L587 640 L585 640 L585 641 L583 641 L583 642 L581 642 L581 643 L579 643 L579 644 L577 644 L577 645 L575 645 L575 646 L573 646 L573 647 L571 647 L571 648 L569 648 L569 649 L567 649 L567 650 L565 650 L565 651 L563 651 L563 652 L561 652 L561 653 L559 653 L559 654 L557 654 L557 655 L555 655 L555 656 L554 656 L554 657 L552 657 L552 658 L550 658 L550 659 L548 659 L548 660 L546 660 L546 661 L544 661 L544 662 L543 662 L543 663 L541 663 L541 664 L539 664 L539 665 L537 665 L537 666 L536 666 L536 667 L535 667 L535 666 L534 666 L534 664 L534 662 L534 660 L534 658 L533 658 L533 657 L532 657 L532 656 L531 656 L531 654 L530 654 L530 653 L529 653 L529 652 L528 652 L528 651 L527 651 L527 650 L526 650 L526 649 L525 649 L525 648 L524 648 L524 647 L523 647 L523 646 L522 646 L522 645 L521 645 L521 644 L520 644 L520 642 L519 642 L519 641 L518 641 L518 640 L517 640 L517 639 L516 639 L516 638 L515 638 L515 637 L514 637 L514 636 L513 636 L513 635 L512 635 L512 634 L511 634 L511 633 L510 633 L510 632 L509 632 L509 630 L508 630 L508 629 L507 629 L507 628 L506 628 L506 627 L505 627 L505 626 L504 626 L504 625 L503 625 L503 624 L502 624 L502 623 L501 623 L501 622 L500 622 L500 621 L499 621 L499 620 L498 620 L498 619 L497 619 L497 618 L496 618 L496 617 L495 617 L495 616 L494 616 L494 615 L493 615 L493 614 L492 614 L492 612 L494 612 L496 612 L497 612 L497 611 L499 611 L501 611 L503 611 L505 611 L507 611 L508 611 L508 610 L510 610 L512 610 L514 610 L516 610 L518 610 L520 610 L521 610 L521 609 L523 609 L525 609 L526 609 L526 608 L526 607 Z M1053 376 L1053 378 L1053 379 L1052 379 L1052 381 L1052 382 L1051 382 L1051 384 L1051 385 L1050 385 L1050 387 L1050 388 L1049 388 L1049 390 L1049 391 L1048 391 L1048 393 L1048 394 L1047 394 L1047 396 L1047 397 L1046 397 L1046 399 L1046 400 L1045 400 L1045 402 L1045 403 L1044 403 L1044 405 L1044 406 L1043 406 L1043 408 L1043 409 L1042 409 L1042 411 L1042 413 L1041 413 L1041 415 L1041 416 L1040 416 L1040 418 L1040 419 L1039 419 L1039 421 L1039 422 L1038 422 L1038 424 L1038 425 L1037 425 L1037 427 L1037 428 L1036 428 L1036 430 L1036 432 L1035 432 L1035 434 L1035 435 L1034 435 L1034 437 L1034 439 L1033 439 L1033 441 L1033 442 L1032 442 L1032 444 L1032 445 L1031 445 L1031 447 L1031 449 L1030 449 L1030 451 L1030 453 L1029 453 L1029 455 L1029 456 L1028 456 L1028 458 L1028 460 L1027 460 L1027 462 L1027 463 L1026 463 L1026 465 L1026 467 L1025 467 L1025 469 L1025 471 L1024 471 L1024 473 L1024 475 L1023 475 L1023 477 L1023 479 L1022 479 L1022 481 L1022 483 L1022 484 L1021 484 L1021 486 L1021 488 L1020 488 L1020 490 L1020 492 L1019 492 L1019 494 L1019 496 L1019 498 L1018 498 L1018 500 L1018 502 L1017 502 L1017 504 L1017 506 L1017 507 L1016 507 L1016 509 L1016 511 L1016 513 L1015 513 L1015 515 L1015 517 L1015 519 L1015 520 L1014 520 L1014 522 L1014 524 L1014 526 L1014 527 L1013 527 L1013 529 L1013 531 L1013 533 L1013 535 L1013 537 L1013 539 L1012 539 L1012 541 L1012 543 L1012 545 L1012 547 L1012 549 L1012 551 L1012 553 L1012 555 L1010 555 L1009 555 L1009 556 L1007 556 L1005 556 L1005 557 L1003 557 L1001 557 L1001 558 L999 558 L997 558 L996 558 L996 559 L994 559 L992 559 L992 560 L990 560 L988 560 L986 560 L986 561 L984 561 L982 561 L981 561 L981 562 L979 562 L977 562 L976 562 L976 563 L974 563 L972 563 L971 563 L971 564 L969 564 L967 564 L966 564 L966 565 L964 565 L962 565 L962 566 L960 566 L958 566 L957 566 L957 564 L957 562 L957 561 L958 561 L958 559 L958 557 L958 555 L959 555 L959 553 L959 551 L959 550 L960 550 L960 548 L960 546 L960 544 L961 544 L961 542 L961 540 L961 538 L962 538 L962 536 L962 534 L962 532 L962 531 L963 531 L963 529 L963 527 L963 525 L964 525 L964 523 L964 521 L964 519 L964 518 L965 518 L965 516 L966 516 L966 514 L967 514 L967 513 L968 513 L968 511 L969 511 L969 509 L970 509 L970 508 L971 508 L971 506 L972 506 L972 504 L973 504 L973 503 L974 503 L974 501 L975 501 L975 499 L976 499 L976 498 L977 498 L977 496 L978 496 L978 494 L979 494 L979 492 L980 492 L980 491 L981 491 L981 489 L982 489 L982 487 L983 487 L983 485 L984 485 L984 484 L985 484 L985 482 L986 482 L986 480 L987 480 L987 478 L988 478 L988 477 L989 477 L989 475 L990 475 L990 473 L991 473 L991 471 L992 471 L992 470 L993 470 L993 468 L994 468 L994 466 L995 466 L995 464 L996 464 L996 462 L997 462 L997 460 L998 460 L998 459 L999 459 L999 457 L1000 457 L1000 455 L1001 455 L1001 453 L1002 453 L1002 452 L1003 452 L1003 451 L1005 451 L1005 452 L1007 452 L1008 452 L1008 451 L1010 451 L1011 451 L1011 450 L1013 450 L1013 449 L1014 449 L1014 448 L1015 448 L1015 447 L1016 447 L1016 445 L1017 445 L1017 443 L1017 442 L1018 442 L1018 440 L1018 438 L1018 436 L1017 436 L1017 434 L1017 433 L1016 433 L1016 432 L1015 432 L1015 431 L1014 431 L1014 430 L1013 430 L1013 429 L1012 429 L1012 428 L1010 428 L1010 427 L1008 427 L1007 427 L1007 426 L1005 426 L1003 426 L1003 427 L1001 427 L1000 427 L1000 428 L998 428 L998 429 L996 429 L996 431 L995 431 L995 432 L994 432 L994 434 L993 434 L993 436 L993 437 L992 437 L992 439 L992 440 L993 440 L993 442 L993 444 L994 444 L994 446 L995 446 L995 448 L995 449 L994 449 L994 450 L993 450 L993 452 L992 452 L992 453 L991 453 L991 455 L990 455 L990 456 L989 456 L989 458 L988 458 L988 459 L987 459 L987 461 L986 461 L986 462 L985 462 L985 463 L984 463 L984 465 L983 465 L983 467 L982 467 L982 468 L981 468 L981 469 L980 469 L980 471 L979 471 L979 472 L978 472 L978 474 L977 474 L977 475 L976 475 L976 477 L975 477 L975 478 L974 478 L974 480 L973 480 L973 481 L972 481 L972 483 L971 483 L971 485 L970 485 L970 486 L969 486 L969 487 L968 487 L968 489 L967 489 L967 491 L966 491 L966 492 L965 492 L965 493 L964 493 L964 495 L963 495 L963 497 L962 497 L962 498 L961 498 L961 500 L960 500 L960 502 L959 502 L959 503 L958 503 L958 505 L957 505 L957 506 L956 506 L956 508 L955 508 L955 509 L954 509 L954 511 L953 511 L953 512 L952 512 L952 513 L951 513 L951 514 L949 514 L949 515 L948 515 L948 516 L946 516 L946 517 L945 517 L945 518 L944 518 L944 519 L942 519 L942 520 L941 520 L941 521 L939 521 L939 522 L938 522 L938 523 L936 523 L936 524 L935 524 L935 525 L933 525 L933 526 L932 526 L932 527 L931 527 L931 528 L929 528 L929 529 L928 529 L928 530 L926 530 L926 531 L925 531 L925 532 L923 532 L923 533 L922 533 L922 534 L920 534 L920 535 L919 535 L919 536 L918 536 L918 537 L916 537 L916 538 L915 538 L915 539 L913 539 L913 540 L911 540 L911 541 L910 541 L910 542 L908 542 L908 543 L907 543 L907 544 L905 544 L905 545 L904 545 L904 546 L902 546 L902 545 L901 545 L901 543 L901 542 L900 542 L900 540 L899 540 L899 538 L899 537 L898 537 L898 535 L897 535 L897 533 L896 533 L896 531 L896 530 L895 530 L895 528 L894 528 L894 526 L894 525 L893 525 L893 523 L892 523 L892 521 L891 521 L891 519 L891 518 L890 518 L890 516 L889 516 L889 515 L890 515 L890 514 L891 514 L891 513 L892 513 L892 512 L893 512 L893 511 L894 511 L894 510 L896 510 L896 509 L897 509 L897 508 L898 508 L898 507 L899 507 L899 506 L900 506 L900 505 L902 505 L902 504 L903 504 L903 503 L904 503 L904 502 L905 502 L905 501 L906 501 L906 500 L907 500 L907 499 L909 499 L909 498 L910 498 L910 497 L911 497 L911 496 L912 496 L912 495 L913 495 L913 494 L914 494 L914 493 L915 493 L915 492 L916 492 L916 491 L917 491 L917 490 L918 490 L918 489 L920 489 L920 488 L921 488 L921 487 L922 487 L922 486 L923 486 L923 485 L924 485 L924 484 L925 484 L925 483 L926 483 L926 482 L927 482 L927 481 L928 481 L928 480 L929 480 L929 479 L930 479 L930 478 L931 478 L931 477 L932 477 L932 476 L933 476 L933 475 L934 475 L934 474 L935 474 L935 473 L936 473 L936 472 L938 472 L938 471 L939 471 L939 470 L940 470 L940 469 L941 469 L941 468 L942 468 L942 467 L943 467 L943 466 L944 466 L944 465 L945 465 L945 464 L946 464 L946 463 L947 463 L947 462 L948 462 L948 461 L949 461 L949 460 L950 460 L950 459 L951 459 L951 458 L952 458 L952 457 L953 457 L953 456 L954 456 L954 455 L955 455 L955 454 L956 454 L956 453 L957 453 L957 452 L958 452 L958 451 L959 451 L959 450 L960 450 L960 449 L961 449 L961 448 L962 448 L962 447 L963 447 L963 446 L964 446 L964 445 L965 445 L965 444 L966 444 L966 443 L967 443 L967 442 L968 442 L968 441 L969 441 L969 440 L970 440 L970 439 L971 439 L971 438 L972 438 L972 437 L973 437 L973 436 L974 436 L974 435 L975 435 L975 434 L976 434 L976 433 L977 433 L977 432 L978 432 L978 431 L979 431 L979 430 L980 430 L980 429 L981 429 L981 428 L982 428 L982 427 L983 427 L983 426 L984 426 L984 425 L985 425 L985 424 L986 424 L986 423 L987 423 L987 422 L988 422 L988 421 L989 421 L989 420 L990 420 L990 419 L991 419 L991 418 L992 418 L992 417 L993 417 L993 416 L994 416 L994 415 L995 415 L995 414 L996 414 L996 413 L997 413 L997 412 L998 412 L998 411 L999 411 L999 410 L1000 410 L1000 409 L1001 409 L1001 408 L1002 408 L1002 407 L1003 407 L1003 406 L1004 406 L1004 405 L1005 405 L1005 404 L1006 404 L1006 403 L1007 403 L1007 402 L1008 402 L1008 401 L1009 401 L1009 400 L1010 400 L1010 399 L1011 399 L1011 398 L1012 398 L1012 397 L1013 397 L1013 396 L1014 396 L1014 395 L1015 395 L1015 394 L1016 394 L1016 393 L1017 393 L1017 392 L1018 392 L1018 391 L1019 391 L1019 390 L1020 390 L1020 389 L1021 389 L1021 388 L1022 388 L1022 387 L1023 387 L1023 386 L1024 386 L1024 385 L1025 385 L1025 384 L1026 384 L1026 383 L1027 383 L1027 382 L1028 382 L1028 381 L1029 381 L1029 380 L1030 380 L1030 379 L1031 379 L1031 378 L1032 378 L1032 377 L1033 377 L1033 376 L1034 376 L1034 375 L1035 375 L1035 374 L1036 374 L1036 373 L1037 373 L1037 372 L1038 372 L1038 371 L1039 371 L1039 370 L1040 370 L1040 369 L1041 369 L1041 368 L1042 368 L1042 367 L1043 367 L1043 366 L1044 366 L1044 365 L1045 365 L1045 364 L1046 364 L1046 363 L1047 363 L1047 362 L1048 362 L1048 361 L1049 361 L1049 360 L1050 360 L1050 359 L1051 359 L1051 358 L1052 358 L1052 357 L1053 357 L1053 356 L1054 356 L1054 354 L1055 354 L1055 353 L1056 353 L1056 352 L1057 352 L1057 351 L1058 351 L1058 350 L1059 350 L1059 349 L1060 349 L1060 348 L1061 348 L1061 347 L1062 347 L1062 346 L1063 346 L1063 345 L1065 345 L1065 347 L1064 347 L1064 349 L1063 349 L1063 351 L1063 352 L1062 352 L1062 354 L1061 354 L1061 356 L1061 357 L1060 357 L1060 359 L1060 360 L1059 360 L1059 362 L1058 362 L1058 364 L1058 365 L1057 365 L1057 367 L1057 368 L1056 368 L1056 370 L1056 371 L1055 371 L1055 373 L1055 374 L1054 374 L1054 376 L1053 376 Z M939 599 L939 598 L940 598 L940 597 L941 597 L941 595 L942 595 L942 594 L943 594 L943 592 L944 592 L944 591 L945 591 L945 589 L946 589 L946 588 L948 588 L950 588 L950 587 L952 587 L954 587 L955 587 L955 586 L957 586 L959 586 L960 586 L960 585 L962 585 L964 585 L964 584 L966 584 L968 584 L969 584 L969 583 L971 583 L973 583 L973 582 L975 582 L977 582 L978 582 L978 581 L980 581 L982 581 L983 581 L983 580 L985 580 L987 580 L987 579 L989 579 L991 579 L992 579 L992 578 L994 578 L995 578 L995 577 L997 577 L999 577 L1000 577 L1000 576 L1002 576 L1004 576 L1005 576 L1005 575 L1007 575 L1007 577 L1007 579 L1007 581 L1008 581 L1008 583 L1008 585 L1008 587 L1008 589 L1008 591 L1009 591 L1009 593 L1009 595 L1009 597 L1009 599 L1009 601 L1009 602 L1010 602 L1010 604 L1010 606 L1010 608 L1010 609 L1012 609 L1014 609 L1016 609 L1016 610 L1018 610 L1020 610 L1022 610 L1024 610 L1026 610 L1028 610 L1029 610 L1029 611 L1031 611 L1033 611 L1035 611 L1037 611 L1039 611 L1040 611 L1040 612 L1042 612 L1044 612 L1044 614 L1043 614 L1043 615 L1042 615 L1042 616 L1041 616 L1041 617 L1040 617 L1040 618 L1039 618 L1039 619 L1038 619 L1038 620 L1037 620 L1037 621 L1036 621 L1036 622 L1035 622 L1035 623 L1034 623 L1034 624 L1033 624 L1033 625 L1032 625 L1032 626 L1031 626 L1031 627 L1030 627 L1030 628 L1029 628 L1029 630 L1028 630 L1028 631 L1027 631 L1027 632 L1026 632 L1026 633 L1025 633 L1025 634 L1024 634 L1024 635 L1023 635 L1023 636 L1022 636 L1022 637 L1021 637 L1021 638 L1020 638 L1020 640 L1019 640 L1019 641 L1018 641 L1018 642 L1017 642 L1017 643 L1016 643 L1016 644 L1015 644 L1015 645 L1014 645 L1014 646 L1013 646 L1013 647 L1012 647 L1012 648 L1011 648 L1011 649 L1010 649 L1010 651 L1009 651 L1009 652 L1008 652 L1008 653 L1007 653 L1007 654 L1006 654 L1006 655 L1005 655 L1005 656 L1004 656 L1004 657 L1003 657 L1003 658 L1002 658 L1002 660 L1002 662 L1002 664 L1002 666 L1002 667 L1000 667 L1000 666 L999 666 L999 665 L997 665 L997 664 L995 664 L995 663 L994 663 L994 662 L992 662 L992 661 L990 661 L990 660 L988 660 L988 659 L986 659 L986 658 L984 658 L984 657 L983 657 L983 656 L981 656 L981 655 L979 655 L979 654 L977 654 L977 653 L975 653 L975 652 L973 652 L973 651 L971 651 L971 650 L969 650 L969 649 L967 649 L967 648 L965 648 L965 647 L963 647 L963 646 L961 646 L961 645 L959 645 L959 644 L957 644 L957 643 L955 643 L955 642 L953 642 L953 641 L952 641 L952 640 L950 640 L950 639 L948 639 L948 638 L946 638 L945 638 L945 637 L943 637 L943 636 L941 636 L941 635 L939 635 L939 634 L937 634 L937 633 L935 633 L935 632 L933 632 L933 631 L931 631 L931 630 L929 630 L929 629 L927 629 L927 628 L925 628 L924 628 L924 627 L922 627 L922 626 L920 626 L920 625 L918 625 L918 624 L916 624 L916 623 L914 623 L914 622 L912 622 L912 620 L914 620 L914 619 L916 619 L916 618 L917 618 L917 617 L919 617 L919 616 L920 616 L920 615 L922 615 L922 614 L923 614 L923 613 L924 613 L924 612 L926 612 L926 611 L927 611 L927 610 L928 610 L928 609 L929 609 L929 608 L931 608 L931 607 L932 607 L932 606 L933 606 L933 605 L934 605 L934 604 L935 604 L935 603 L936 603 L936 602 L937 602 L937 601 L938 601 L938 599 L939 599 Z M551 609 L551 610 L550 610 L550 611 L548 611 L548 612 L547 612 L547 614 L546 614 L546 616 L545 616 L545 618 L545 620 L545 621 L546 621 L546 623 L546 624 L547 624 L547 626 L548 626 L548 627 L549 627 L549 628 L551 628 L551 629 L553 629 L553 630 L555 630 L557 630 L559 630 L559 629 L561 629 L562 629 L562 628 L563 628 L563 627 L564 627 L564 626 L565 626 L565 625 L566 625 L566 623 L567 623 L567 621 L567 619 L567 617 L567 615 L566 615 L566 613 L565 613 L565 612 L564 612 L564 611 L563 611 L563 610 L561 610 L561 609 L559 609 L558 609 L558 608 L556 608 L554 608 L554 609 L553 609 L551 609 Z M986 611 L986 610 L985 610 L985 609 L983 609 L982 609 L982 608 L980 608 L978 608 L977 608 L977 609 L975 609 L975 610 L973 610 L973 611 L972 611 L972 612 L971 612 L971 613 L970 613 L970 615 L969 615 L969 617 L969 619 L969 621 L969 623 L970 623 L970 625 L971 625 L971 626 L972 626 L972 627 L973 627 L973 628 L974 628 L974 629 L976 629 L977 629 L977 630 L979 630 L981 630 L983 630 L983 629 L985 629 L985 628 L987 628 L987 627 L988 627 L988 626 L989 626 L989 624 L990 624 L990 622 L991 622 L991 620 L991 618 L991 616 L990 616 L990 614 L989 614 L989 612 L988 612 L988 611 L986 611 Z"/>
</svg>
